<svg width="100%" height="100%" viewBox="0 0 51 8" fill="none" xmlns="http://www.w3.org/2000/svg">
<path fill-rule="evenodd" clip-rule="evenodd" d="M46.1469 0.146894C46.1933 0.10033 46.2485 0.0633873 46.3093 0.0381808C46.37 0.0129744 46.4351 0 46.5009 0C46.5667 0 46.6318 0.0129744 46.6925 0.0381808C46.7533 0.0633873 46.8084 0.10033 46.8549 0.146894L49.8549 3.14689C49.9015 3.19334 49.9384 3.24851 49.9636 3.30926C49.9888 3.37001 50.0018 3.43513 50.0018 3.50089C50.0018 3.56666 49.9888 3.63178 49.9636 3.69253C49.9384 3.75327 49.9015 3.80845 49.8549 3.85489L46.8549 6.85489C46.761 6.94878 46.6337 7.00152 46.5009 7.00152C46.3681 7.00152 46.2408 6.94878 46.1469 6.85489C46.053 6.76101 46.0003 6.63367 46.0003 6.50089C46.0003 6.36812 46.053 6.24078 46.1469 6.14689L48.7939 3.50089L46.1469 0.854894C46.1003 0.808448 46.0634 0.753272 46.0382 0.692527C46.013 0.631782 46 0.566661 46 0.500894C46 0.435126 46.013 0.370005 46.0382 0.30926C46.0634 0.248515 46.1003 0.193339 46.1469 0.146894V0.146894Z" fill="black"/>
<path fill-rule="evenodd" clip-rule="evenodd" d="M0 3.5C0 3.36739 0.229037 3.24021 0.636725 3.14645C1.04441 3.05268 1.59736 3 2.17391 3H47.8261C48.4026 3 48.9556 3.05268 49.3633 3.14645C49.771 3.24021 50 3.36739 50 3.5C50 3.63261 49.771 3.75979 49.3633 3.85355C48.9556 3.94732 48.4026 4 47.8261 4H2.17391C1.59736 4 1.04441 3.94732 0.636725 3.85355C0.229037 3.75979 0 3.63261 0 3.5Z" fill="black"/>
</svg>
