<svg width="31" height="30" viewBox="0 0 31 30" fill="none" xmlns="http://www.w3.org/2000/svg">
<path d="M2.85881 0L2.21501 0.607211L0.607211 2.21501L0 2.85881L0.464271 3.60896L2.85881 7.6113L3.18014 8.18306H6.54096L11.1151 12.7217C7.0281 16.827 1.8285 22.0437 1.64553 22.2278C-0.146371 24.0186 -0.149802 26.9529 1.67984 28.6602C3.46717 30.4235 6.37972 30.4692 8.07786 28.6602L8.11216 28.6236L15.1517 21.5486L22.2278 28.659L22.3342 28.7311C24.1295 30.4235 26.9849 30.4463 28.6602 28.659V28.6247H28.6945C30.4463 26.8328 30.4646 23.9202 28.6602 22.2267L28.6236 22.1924L22.6567 16.2598C26.6716 15.8847 29.8163 12.4941 29.8746 8.39804H29.91C29.9146 8.37517 29.91 8.34887 29.91 8.326V8.29055C30.0221 6.96864 29.7362 5.7039 29.0524 4.60955L28.2679 3.39627L22.9425 8.72052L21.3347 7.04068L26.7665 1.60894L25.1941 0.966278C24.1912 0.525039 23.1086 0.293499 22.0128 0.285881C17.6171 0.285881 14.0082 3.89484 14.0082 8.29055C14.0082 8.76855 14.1111 9.18364 14.1866 9.61247C13.6868 10.1133 13.3118 10.5239 12.7217 11.1139L8.18306 6.57527V3.18014L7.6113 2.85881L3.60896 0.464271L2.85881 0ZM22.0128 2.57293C22.1729 2.57293 22.285 2.6667 22.4417 2.68042L18.118 7.00409L18.9036 7.82628L22.1203 11.1494L22.9059 11.9716L27.4446 7.43291C27.4675 7.69592 27.655 7.88803 27.623 8.18306V8.29055C27.623 11.4398 25.0546 14.0082 21.9054 14.0082C21.4857 14.0082 20.9768 13.9098 20.4051 13.7932L19.7967 13.6868L19.3679 14.1157L6.46892 27.0512H6.43233V27.0878C5.62042 27.9763 4.19902 27.9981 3.25218 27.0512V27.0158H3.21559C2.32707 26.2039 2.30535 24.7825 3.25218 23.8356C3.68558 23.4011 12.0779 14.9367 16.1877 10.828L16.6531 10.3638L16.4736 9.71996C16.3651 9.2509 16.3053 8.77189 16.2952 8.29055C16.2952 5.14129 18.8636 2.57293 22.0128 2.57293ZM3.21559 2.85881L5.89601 4.5032V5.64672L5.64672 5.89601H4.5032L2.85881 3.21673L3.21559 2.85881ZM19.9396 16.7595L27.0524 23.8356V23.8711H27.0867C27.9763 24.683 27.9981 26.1044 27.0524 27.0512H27.0158V27.0878C26.2039 27.9763 24.7825 27.9981 23.8356 27.0512L16.7595 19.9408L19.9396 16.7595Z" fill="black"/>
</svg>
