<svg width="1500" height="1536" viewBox="0 0 1500 1536" fill="none" xmlns="http://www.w3.org/2000/svg">
<g clip-path="url(#clip0)">
<rect width="1500" height="1536" fill="#F7F8FA"/>
<g clip-path="url(#clip1)">
<path d="M1601.67 1287C2044.45 1287 2403.4 1263.08 2403.4 1233.57C2403.4 1204.06 2044.45 1180.14 1601.67 1180.14C1158.88 1180.14 799.928 1204.06 799.928 1233.57C799.928 1263.08 1158.88 1287 1601.67 1287Z" fill="#F2F2F2"/>
<path d="M1628.59 1235.19L1340.09 1231.5L1340.93 1224.1L1354.89 1102.04H1608.26L1626.89 1224.1L1628.32 1233.34L1628.59 1235.19Z" fill="#2F2E41"/>
<path opacity="0.1" d="M1628.32 1233.34H1484.33L1340.09 1231.5L1340.93 1224.1H1626.89L1628.32 1233.34Z" fill="black"/>
<path d="M1674.83 1225.94H1292V1235.19H1674.83V1225.94Z" fill="#3F3D56"/>
<path d="M2040.1 368.899C2040.11 365.737 2039.5 362.603 2038.31 359.677C2037.11 356.75 2035.35 354.087 2033.13 351.841C2030.9 349.595 2028.26 347.809 2025.34 346.586C2022.42 345.362 2019.3 344.724 2016.14 344.71H947.022C943.86 344.724 940.732 345.362 937.817 346.586C934.902 347.809 932.256 349.595 930.031 351.841C927.806 354.087 926.045 356.75 924.849 359.677C923.653 362.603 923.045 365.737 923.059 368.899V1016.95H2040.1V368.899Z" fill="#3F3D56"/>
<path d="M923.059 1010.49V1086.4C923.059 1092.75 925.584 1098.85 930.078 1103.34C934.572 1107.83 940.667 1110.36 947.022 1110.36H2016.14C2022.49 1110.36 2028.59 1107.83 2033.08 1103.34C2037.57 1098.85 2040.1 1092.75 2040.1 1086.4V1010.49H923.059Z" fill="#3F3D56"/>
<path d="M1999.39 385.397H969.284V967.96H1999.39V385.397Z" fill="#2F2E41"/>
<path d="M1487.07 1081.55C1490.85 1081.56 1494.58 1080.7 1497.99 1079.05C1501.39 1077.4 1504.37 1074.99 1506.71 1072.02C1507.42 1071.11 1508.07 1070.15 1508.65 1069.15L1494.95 1066.9L1509.77 1067.02C1511.18 1063.92 1511.96 1060.57 1512.04 1057.17C1512.13 1053.77 1511.52 1050.39 1510.25 1047.23L1490.37 1057.54L1508.7 1044.07C1506.98 1041.11 1504.67 1038.54 1501.91 1036.51C1499.15 1034.49 1496.01 1033.05 1492.67 1032.29C1489.33 1031.52 1485.87 1031.46 1482.51 1032.09C1479.14 1032.72 1475.95 1034.04 1473.11 1035.96C1470.28 1037.88 1467.87 1040.36 1466.04 1043.25C1464.2 1046.14 1462.98 1049.38 1462.45 1052.76C1461.92 1056.14 1462.09 1059.6 1462.96 1062.91C1463.82 1066.22 1465.35 1069.32 1467.46 1072.02V1072.02C1469.79 1074.99 1472.77 1077.39 1476.17 1079.04C1479.56 1080.7 1483.29 1081.55 1487.07 1081.55Z" fill="#266AFB"/>
<path opacity="0.3" d="M1049.28 610.142H1015.04V620.537H1049.28V610.142Z" fill="#266AFB"/>
<path opacity="0.3" d="M1049.59 683.211H1015.35V693.606H1049.59V683.211Z" fill="#266AFB"/>
<path opacity="0.3" d="M1049.9 756.281H1015.65V766.675H1049.9V756.281Z" fill="#266AFB"/>
<path opacity="0.3" d="M1050.21 829.334H1015.96V839.728H1050.21V829.334Z" fill="#266AFB"/>
<g opacity="0.2">
<path opacity="0.2" d="M1059 615.145H1049.28V615.55H1059V615.145Z" fill="#F2F2F2"/>
<path opacity="0.2" d="M1899.35 615.55H1880.26V615.145H1899.35V615.55ZM1861.16 615.55H1842.07V615.145H1861.16V615.55ZM1822.96 615.55H1803.86V615.145H1822.96V615.55ZM1784.77 615.55H1765.66V615.145H1784.77V615.55ZM1746.57 615.55H1727.47V615.145H1746.57V615.55ZM1708.36 615.55H1689.27V615.145H1708.36V615.55ZM1670.17 615.55H1651.06V615.145H1670.17V615.55ZM1631.98 615.55H1612.87V615.145H1631.98V615.55ZM1593.78 615.55H1574.68V615.145H1593.78V615.55ZM1555.57 615.55H1536.48V615.145H1555.57V615.55ZM1517.38 615.55H1498.27V615.145H1517.38V615.55ZM1479.18 615.55H1460.08V615.145H1479.18V615.55ZM1440.99 615.55H1421.88V615.145H1440.99V615.55ZM1402.78 615.55H1383.69V615.145H1402.78V615.55ZM1364.58 615.55H1345.49V615.145H1364.58V615.55ZM1326.39 615.55H1307.35V615.145H1326.45L1326.39 615.55ZM1288.2 615.55H1269.09V615.145H1288.2V615.55ZM1249.98 615.55H1230.9V615.145H1249.98V615.55ZM1211.79 615.55H1192.7V615.145H1211.82L1211.79 615.55ZM1173.6 615.55H1154.49V615.145H1173.6V615.55ZM1135.4 615.55H1116.3V615.145H1135.4V615.55ZM1097.19 615.55H1078.1V615.145H1097.19V615.55Z" fill="#F2F2F2"/>
<path opacity="0.2" d="M1059 615.145H1049.28V615.55H1059V615.145Z" fill="#F2F2F2"/>
<path opacity="0.2" d="M1899.35 615.55H1880.26V615.145H1899.35V615.55ZM1861.16 615.55H1842.07V615.145H1861.16V615.55ZM1822.96 615.55H1803.86V615.145H1822.96V615.55ZM1784.77 615.55H1765.66V615.145H1784.77V615.55ZM1746.57 615.55H1727.47V615.145H1746.57V615.55ZM1708.36 615.55H1689.27V615.145H1708.36V615.55ZM1670.17 615.55H1651.06V615.145H1670.17V615.55ZM1631.98 615.55H1612.87V615.145H1631.98V615.55ZM1593.78 615.55H1574.68V615.145H1593.78V615.55ZM1555.57 615.55H1536.48V615.145H1555.57V615.55ZM1517.38 615.55H1498.27V615.145H1517.38V615.55ZM1479.18 615.55H1460.08V615.145H1479.18V615.55ZM1440.99 615.55H1421.88V615.145H1440.99V615.55ZM1402.78 615.55H1383.69V615.145H1402.78V615.55ZM1364.58 615.55H1345.49V615.145H1364.58V615.55ZM1326.39 615.55H1307.35V615.145H1326.45L1326.39 615.55ZM1288.2 615.55H1269.09V615.145H1288.2V615.55ZM1249.98 615.55H1230.9V615.145H1249.98V615.55ZM1211.79 615.55H1192.7V615.145H1211.82L1211.79 615.55ZM1173.6 615.55H1154.49V615.145H1173.6V615.55ZM1135.4 615.55H1116.3V615.145H1135.4V615.55ZM1097.19 615.55H1078.1V615.145H1097.19V615.55Z" fill="#F2F2F2"/>
</g>
<path opacity="0.3" d="M1049.28 537.283H1015.04V547.678H1049.28V537.283Z" fill="#266AFB"/>
<g opacity="0.2">
<path opacity="0.2" d="M1059 542.286H1049.28V542.691H1059V542.286Z" fill="#F2F2F2"/>
<path opacity="0.2" d="M1899.35 542.691H1880.26V542.286H1899.35V542.691ZM1861.16 542.691H1842.07V542.286H1861.16V542.691ZM1822.96 542.691H1803.86V542.286H1822.96V542.691ZM1784.77 542.691H1765.66V542.286H1784.77V542.691ZM1746.57 542.691H1727.47V542.286H1746.57V542.691ZM1708.36 542.691H1689.27V542.286H1708.36V542.691ZM1670.17 542.691H1651.06V542.286H1670.17V542.691ZM1631.98 542.691H1612.87V542.286H1631.98V542.691ZM1593.78 542.691H1574.68V542.286H1593.78V542.691ZM1555.57 542.691H1536.48V542.286H1555.57V542.691ZM1517.38 542.691H1498.27V542.286H1517.38V542.691ZM1479.18 542.691H1460.08V542.286H1479.18V542.691ZM1440.99 542.691H1421.88V542.286H1440.99V542.691ZM1402.78 542.691H1383.69V542.286H1402.78V542.691ZM1364.58 542.691H1345.49V542.286H1364.58V542.691ZM1326.39 542.691H1307.35V542.286H1326.45L1326.39 542.691ZM1288.2 542.691H1269.09V542.286H1288.2V542.691ZM1249.98 542.691H1230.9V542.286H1249.98V542.691ZM1211.79 542.691H1192.7V542.286H1211.82L1211.79 542.691ZM1173.6 542.691H1154.49V542.286H1173.6V542.691ZM1135.4 542.691H1116.3V542.286H1135.4V542.691ZM1097.19 542.691H1078.1V542.286H1097.19V542.691Z" fill="#F2F2F2"/>
</g>
<g opacity="0.2">
<path opacity="0.2" d="M1059 687.907H1049.28V688.312H1059V687.907Z" fill="#F2F2F2"/>
<path opacity="0.2" d="M1899.35 688.295H1880.26V687.891H1899.35V688.295ZM1861.16 688.295H1842.07V687.891H1861.16V688.295ZM1822.96 688.295H1803.86V687.891H1822.96V688.295ZM1784.77 688.295H1765.66V687.891H1784.77V688.295ZM1746.57 688.295H1727.47V687.891H1746.57V688.295ZM1708.36 688.295H1689.27V687.891H1708.36V688.295ZM1670.17 688.295H1651.06V687.891H1670.17V688.295ZM1631.98 688.295H1612.87V687.891H1631.98V688.295ZM1593.78 688.295H1574.68V687.891H1593.78V688.295ZM1555.57 688.295H1536.48V687.891H1555.57V688.295ZM1517.38 688.295H1498.27V687.891H1517.38V688.295ZM1479.18 688.295H1460.08V687.891H1479.18V688.295ZM1440.99 688.295H1421.88V687.891H1440.99V688.295ZM1402.78 688.295H1383.69V687.891H1402.78V688.295ZM1364.58 688.295H1345.49V687.891H1364.58V688.295ZM1326.39 688.295H1307.35V687.891H1326.45L1326.39 688.295ZM1288.2 688.295H1269.09V687.891H1288.2V688.295ZM1249.98 688.295H1230.9V687.891H1249.98V688.295ZM1211.79 688.295H1192.7V687.891H1211.82L1211.79 688.295ZM1173.6 688.295H1154.49V687.891H1173.6V688.295ZM1135.4 688.295H1116.3V687.891H1135.4V688.295ZM1097.19 688.295H1078.1V687.891H1097.19V688.295Z" fill="#F2F2F2"/>
<path opacity="0.2" d="M1059 687.907H1049.28V688.312H1059V687.907Z" fill="#F2F2F2"/>
<path opacity="0.2" d="M1899.35 688.295H1880.26V687.891H1899.35V688.295ZM1861.16 688.295H1842.07V687.891H1861.16V688.295ZM1822.96 688.295H1803.86V687.891H1822.96V688.295ZM1784.77 688.295H1765.66V687.891H1784.77V688.295ZM1746.57 688.295H1727.47V687.891H1746.57V688.295ZM1708.36 688.295H1689.27V687.891H1708.36V688.295ZM1670.17 688.295H1651.06V687.891H1670.17V688.295ZM1631.98 688.295H1612.87V687.891H1631.98V688.295ZM1593.78 688.295H1574.68V687.891H1593.78V688.295ZM1555.57 688.295H1536.48V687.891H1555.57V688.295ZM1517.38 688.295H1498.27V687.891H1517.38V688.295ZM1479.18 688.295H1460.08V687.891H1479.18V688.295ZM1440.99 688.295H1421.88V687.891H1440.99V688.295ZM1402.78 688.295H1383.69V687.891H1402.78V688.295ZM1364.58 688.295H1345.49V687.891H1364.58V688.295ZM1326.39 688.295H1307.35V687.891H1326.45L1326.39 688.295ZM1288.2 688.295H1269.09V687.891H1288.2V688.295ZM1249.98 688.295H1230.9V687.891H1249.98V688.295ZM1211.79 688.295H1192.7V687.891H1211.82L1211.79 688.295ZM1173.6 688.295H1154.49V687.891H1173.6V688.295ZM1135.4 688.295H1116.3V687.891H1135.4V688.295ZM1097.19 688.295H1078.1V687.891H1097.19V688.295Z" fill="#F2F2F2"/>
</g>
<g opacity="0.2">
<path opacity="0.2" d="M1059 760.652H1049.28V761.057H1059V760.652Z" fill="#F2F2F2"/>
<path opacity="0.2" d="M1899.35 761.057H1880.26V760.652H1899.35V761.057ZM1861.16 761.057H1842.07V760.652H1861.16V761.057ZM1822.96 761.057H1803.86V760.652H1822.96V761.057ZM1784.77 761.057H1765.66V760.652H1784.77V761.057ZM1746.57 761.057H1727.47V760.652H1746.57V761.057ZM1708.36 761.057H1689.27V760.652H1708.36V761.057ZM1670.17 761.057H1651.06V760.652H1670.17V761.057ZM1631.98 761.057H1612.87V760.652H1631.98V761.057ZM1593.78 761.057H1574.68V760.652H1593.78V761.057ZM1555.57 761.057H1536.48V760.652H1555.57V761.057ZM1517.38 761.057H1498.27V760.652H1517.38V761.057ZM1479.18 761.057H1460.08V760.652H1479.18V761.057ZM1440.99 761.057H1421.88V760.652H1440.99V761.057ZM1402.78 761.057H1383.69V760.652H1402.78V761.057ZM1364.58 761.057H1345.49V760.652H1364.58V761.057ZM1326.39 761.057H1307.35V760.652H1326.45L1326.39 761.057ZM1288.2 761.057H1269.09V760.652H1288.2V761.057ZM1249.98 761.057H1230.9V760.652H1249.98V761.057ZM1211.79 761.057H1192.7V760.652H1211.82L1211.79 761.057ZM1173.6 761.057H1154.49V760.652H1173.6V761.057ZM1135.4 761.057H1116.3V760.652H1135.4V761.057ZM1097.19 761.057H1078.1V760.652H1097.19V761.057Z" fill="#F2F2F2"/>
<path opacity="0.2" d="M1059 760.652H1049.28V761.057H1059V760.652Z" fill="#F2F2F2"/>
<path opacity="0.2" d="M1899.35 761.057H1880.26V760.652H1899.35V761.057ZM1861.16 761.057H1842.07V760.652H1861.16V761.057ZM1822.96 761.057H1803.86V760.652H1822.96V761.057ZM1784.77 761.057H1765.66V760.652H1784.77V761.057ZM1746.57 761.057H1727.47V760.652H1746.57V761.057ZM1708.36 761.057H1689.27V760.652H1708.36V761.057ZM1670.17 761.057H1651.06V760.652H1670.17V761.057ZM1631.98 761.057H1612.87V760.652H1631.98V761.057ZM1593.78 761.057H1574.68V760.652H1593.78V761.057ZM1555.57 761.057H1536.48V760.652H1555.57V761.057ZM1517.38 761.057H1498.27V760.652H1517.38V761.057ZM1479.18 761.057H1460.08V760.652H1479.18V761.057ZM1440.99 761.057H1421.88V760.652H1440.99V761.057ZM1402.78 761.057H1383.69V760.652H1402.78V761.057ZM1364.58 761.057H1345.49V760.652H1364.58V761.057ZM1326.39 761.057H1307.35V760.652H1326.45L1326.39 761.057ZM1288.2 761.057H1269.09V760.652H1288.2V761.057ZM1249.98 761.057H1230.9V760.652H1249.98V761.057ZM1211.79 761.057H1192.7V760.652H1211.82L1211.79 761.057ZM1173.6 761.057H1154.49V760.652H1173.6V761.057ZM1135.4 761.057H1116.3V760.652H1135.4V761.057ZM1097.19 761.057H1078.1V760.652H1097.19V761.057Z" fill="#F2F2F2"/>
</g>
<g opacity="0.2">
<path opacity="0.2" d="M1059 833.414H1049.28V833.819H1059V833.414Z" fill="#F2F2F2"/>
<path opacity="0.2" d="M1899.35 833.818H1880.26V833.414H1899.35V833.818ZM1861.16 833.818H1842.07V833.414H1861.16V833.818ZM1822.96 833.818H1803.86V833.414H1822.96V833.818ZM1784.77 833.818H1765.66V833.414H1784.77V833.818ZM1746.57 833.818H1727.47V833.414H1746.57V833.818ZM1708.36 833.818H1689.27V833.414H1708.36V833.818ZM1670.17 833.818H1651.06V833.414H1670.17V833.818ZM1631.98 833.818H1612.87V833.414H1631.98V833.818ZM1593.78 833.818H1574.68V833.414H1593.78V833.818ZM1555.57 833.818H1536.48V833.414H1555.57V833.818ZM1517.38 833.818H1498.27V833.414H1517.38V833.818ZM1479.18 833.818H1460.08V833.414H1479.18V833.818ZM1440.99 833.818H1421.88V833.414H1440.99V833.818ZM1402.78 833.818H1383.69V833.414H1402.78V833.818ZM1364.58 833.818H1345.49V833.414H1364.58V833.818ZM1326.39 833.818H1307.35V833.414H1326.45L1326.39 833.818ZM1288.2 833.818H1269.09V833.414H1288.2V833.818ZM1249.98 833.818H1230.9V833.414H1249.98V833.818ZM1211.79 833.818H1192.7V833.414H1211.82L1211.79 833.818ZM1173.6 833.818H1154.49V833.414H1173.6V833.818ZM1135.4 833.818H1116.3V833.414H1135.4V833.818ZM1097.19 833.818H1078.1V833.414H1097.19V833.818Z" fill="#F2F2F2"/>
<path opacity="0.2" d="M1059 833.414H1049.28V833.819H1059V833.414Z" fill="#F2F2F2"/>
<path opacity="0.2" d="M1899.35 833.818H1880.26V833.414H1899.35V833.818ZM1861.16 833.818H1842.07V833.414H1861.16V833.818ZM1822.96 833.818H1803.86V833.414H1822.96V833.818ZM1784.77 833.818H1765.66V833.414H1784.77V833.818ZM1746.57 833.818H1727.47V833.414H1746.57V833.818ZM1708.36 833.818H1689.27V833.414H1708.36V833.818ZM1670.17 833.818H1651.06V833.414H1670.17V833.818ZM1631.98 833.818H1612.87V833.414H1631.98V833.818ZM1593.78 833.818H1574.68V833.414H1593.78V833.818ZM1555.57 833.818H1536.48V833.414H1555.57V833.818ZM1517.38 833.818H1498.27V833.414H1517.38V833.818ZM1479.18 833.818H1460.08V833.414H1479.18V833.818ZM1440.99 833.818H1421.88V833.414H1440.99V833.818ZM1402.78 833.818H1383.69V833.414H1402.78V833.818ZM1364.58 833.818H1345.49V833.414H1364.58V833.818ZM1326.39 833.818H1307.35V833.414H1326.45L1326.39 833.818ZM1288.2 833.818H1269.09V833.414H1288.2V833.818ZM1249.98 833.818H1230.9V833.414H1249.98V833.818ZM1211.79 833.818H1192.7V833.414H1211.82L1211.79 833.818ZM1173.6 833.818H1154.49V833.414H1173.6V833.818ZM1135.4 833.818H1116.3V833.414H1135.4V833.818ZM1097.19 833.818H1078.1V833.414H1097.19V833.818Z" fill="#F2F2F2"/>
</g>
<path d="M1160.92 542.788V834.531" stroke="#F2F2F2" stroke-width="0.1" stroke-miterlimit="10"/>
<path d="M1279.11 542.788V834.531" stroke="#F2F2F2" stroke-width="0.1" stroke-miterlimit="10"/>
<path d="M1397.31 542.788V834.531" stroke="#F2F2F2" stroke-width="0.1" stroke-miterlimit="10"/>
<path opacity="0.3" d="M1895.64 523.1L1882.12 537.186C1881.85 537.481 1881.62 537.813 1881.44 538.174L1873.06 555.449C1872.72 556.143 1872.19 556.72 1871.52 557.105C1870.85 557.489 1870.08 557.663 1869.32 557.603L1866.63 557.392C1865.85 557.337 1865.1 557.043 1864.5 556.551C1863.89 556.059 1863.45 555.392 1863.23 554.64L1860.64 545.67C1860.41 544.886 1859.94 544.194 1859.3 543.695C1858.65 543.196 1857.86 542.917 1857.04 542.897C1856.23 542.877 1855.43 543.118 1854.76 543.585C1854.09 544.051 1853.58 544.72 1853.32 545.492L1848.96 558.25C1848.71 559.012 1848.22 559.673 1847.56 560.141C1846.91 560.608 1846.13 560.859 1845.32 560.857H1828.69C1827.78 560.854 1826.9 560.526 1826.21 559.933C1825.51 559.34 1825.05 558.52 1824.91 557.619L1820.21 528.233C1820.09 527.429 1819.71 526.686 1819.13 526.11C1818.56 525.534 1817.82 525.156 1817.01 525.03C1816.21 524.904 1815.39 525.037 1814.66 525.408C1813.94 525.78 1813.35 526.372 1812.99 527.099L1788.91 574.619C1788.66 575.111 1788.31 575.544 1787.88 575.888C1787.45 576.232 1786.95 576.479 1786.42 576.613C1785.88 576.747 1785.33 576.764 1784.78 576.663C1784.24 576.562 1783.73 576.345 1783.28 576.028L1768.97 565.925C1768.18 565.377 1767.23 565.136 1766.28 565.25C1765.33 565.363 1764.46 565.823 1763.83 566.54L1758.41 572.806C1758.25 572.991 1758.11 573.192 1757.99 573.405L1743.51 598.452C1743.15 599.094 1742.6 599.615 1741.94 599.952C1741.28 600.288 1740.54 600.425 1739.81 600.347L1730.98 599.472C1730.37 599.412 1729.74 599.501 1729.17 599.731L1721.27 602.889C1720.35 603.234 1719.34 603.216 1718.44 602.84C1717.53 602.464 1716.81 601.758 1716.41 600.865L1714.68 596.898C1714.37 596.188 1713.85 595.588 1713.19 595.178C1712.53 594.768 1711.76 594.566 1710.99 594.599L1701.95 595.02C1701.39 595.044 1700.85 595.191 1700.35 595.451C1699.85 595.712 1699.42 596.078 1699.09 596.526L1696.53 599.861C1696.11 600.411 1695.55 600.837 1694.9 601.093C1694.26 601.35 1693.56 601.427 1692.87 601.318C1692.19 601.208 1691.55 600.916 1691.02 600.471C1690.49 600.026 1690.09 599.446 1689.86 598.792L1686.62 589.644C1686.42 589.075 1686.09 588.561 1685.65 588.144C1685.22 587.727 1684.69 587.418 1684.11 587.243C1683.53 587.068 1682.92 587.031 1682.33 587.136C1681.74 587.241 1681.18 587.485 1680.69 587.847L1665.31 599.375L1648.31 613.089C1647.73 613.555 1647.03 613.843 1646.29 613.918C1645.54 613.993 1644.8 613.851 1644.13 613.51L1630.94 606.661C1630.23 606.298 1629.43 606.163 1628.64 606.272L1601.91 610.013C1601.13 610.117 1600.41 610.455 1599.83 610.981C1599.25 611.508 1598.85 612.198 1598.67 612.959L1593.93 633.57C1593.78 634.213 1593.47 634.807 1593.02 635.295C1592.58 635.783 1592.02 636.147 1591.39 636.354C1590.76 636.561 1590.09 636.603 1589.45 636.475C1588.8 636.348 1588.19 636.055 1587.69 635.626V635.626C1587.25 635.248 1586.72 634.975 1586.16 634.828C1585.59 634.682 1585 634.665 1584.43 634.781C1583.86 634.896 1583.32 635.14 1582.86 635.494C1582.39 635.848 1582.01 636.303 1581.75 636.825L1578.11 644.127C1577.83 644.666 1577.44 645.135 1576.95 645.494C1576.47 645.854 1575.9 646.095 1575.31 646.199L1567.03 647.575C1566.5 647.668 1565.99 647.872 1565.54 648.174L1552.51 656.853C1551.88 657.274 1551.15 657.5 1550.39 657.5H1544.29C1543.54 657.502 1542.8 657.283 1542.17 656.872C1541.55 656.46 1541.05 655.874 1540.76 655.185L1539.14 651.315C1538.93 650.846 1538.63 650.423 1538.26 650.071C1537.89 649.719 1537.45 649.445 1536.97 649.266C1536.49 649.086 1535.98 649.005 1535.47 649.026C1534.95 649.047 1534.45 649.17 1533.99 649.389L1519.84 656.011C1519.27 656.279 1518.64 656.402 1518.01 656.371C1517.38 656.34 1516.77 656.155 1516.23 655.833L1509.75 651.931C1509.15 651.573 1508.47 651.383 1507.78 651.38H1493.48C1492.72 651.383 1491.99 651.608 1491.36 652.028L1477.09 661.499C1476.54 661.864 1475.91 662.081 1475.25 662.13C1474.59 662.178 1473.93 662.056 1473.34 661.775L1466.86 658.715C1466.11 658.362 1465.26 658.264 1464.44 658.437C1463.63 658.609 1462.89 659.042 1462.34 659.67L1459.27 663.183C1458.87 663.649 1458.36 664.01 1457.78 664.237C1457.21 664.464 1456.59 664.549 1455.98 664.485C1455.37 664.422 1454.78 664.211 1454.27 663.872C1453.76 663.532 1453.33 663.074 1453.03 662.536L1452.11 660.917C1451.86 660.469 1451.52 660.077 1451.12 659.762C1450.71 659.447 1450.25 659.216 1449.76 659.084C1449.26 658.951 1448.74 658.918 1448.24 658.989C1447.73 659.059 1447.24 659.23 1446.8 659.492L1435.58 666.146C1435 666.48 1434.34 666.656 1433.67 666.656C1433 666.656 1432.34 666.48 1431.76 666.146L1427.13 663.572C1426.61 663.277 1426.02 663.111 1425.42 663.085C1424.82 663.06 1424.23 663.177 1423.68 663.426L1419.28 665.434C1418.78 665.656 1418.24 665.771 1417.7 665.772C1417.16 665.774 1416.62 665.661 1416.13 665.441C1415.63 665.221 1415.18 664.899 1414.82 664.496C1414.46 664.093 1414.18 663.618 1414.01 663.102L1411.16 654.618C1410.92 653.84 1410.43 653.16 1409.78 652.679C1409.12 652.198 1408.32 651.941 1407.51 651.947H1403.36C1402.71 651.949 1402.07 651.782 1401.5 651.461L1385.58 642.734C1384.94 642.384 1384.2 642.227 1383.47 642.281C1382.73 642.336 1382.03 642.6 1381.44 643.042L1369.76 651.785C1369.1 652.282 1368.29 652.549 1367.47 652.546H1352.78C1352.02 652.546 1351.29 652.772 1350.66 653.194L1347.91 655.023C1347.45 655.327 1346.94 655.53 1346.4 655.62C1345.87 655.71 1345.32 655.685 1344.79 655.545C1344.26 655.406 1343.77 655.156 1343.35 654.812C1342.93 654.468 1342.58 654.037 1342.34 653.55L1341.67 652.238C1341.36 651.597 1340.87 651.056 1340.26 650.678C1339.66 650.301 1338.96 650.101 1338.24 650.101H1330.87C1330.29 650.102 1329.71 650.237 1329.19 650.495C1328.66 650.753 1328.2 651.128 1327.85 651.591L1323.28 657.436C1322.9 657.92 1322.41 658.307 1321.85 658.563C1321.29 658.819 1320.68 658.937 1320.07 658.907C1319.45 658.876 1318.86 658.699 1318.32 658.39C1317.79 658.08 1317.34 657.647 1317.01 657.128L1315.72 655.104C1315.19 654.256 1314.34 653.652 1313.36 653.422C1312.39 653.192 1311.36 653.354 1310.51 653.874L1306.72 656.14C1306.07 656.526 1305.33 656.714 1304.58 656.683C1303.83 656.651 1303.1 656.401 1302.49 655.962L1287.22 644.904C1286.95 644.711 1286.66 644.548 1286.35 644.418L1274.42 639.836C1273.49 639.498 1272.46 639.532 1271.56 639.93C1270.65 640.328 1269.94 641.06 1269.56 641.973L1261.25 662.212C1261.13 662.496 1261.05 662.796 1261.01 663.102L1258.32 681.333C1258.2 682.104 1257.85 682.821 1257.32 683.389L1251.64 689.493C1251.05 690.116 1250.27 690.525 1249.42 690.657C1248.57 690.789 1247.71 690.636 1246.96 690.222L1237.1 684.749C1236.61 684.475 1236.06 684.311 1235.5 684.27C1234.94 684.23 1234.38 684.313 1233.85 684.513C1233.33 684.714 1232.85 685.028 1232.46 685.432C1232.07 685.837 1231.77 686.322 1231.59 686.854L1225.34 705.134C1225.2 705.534 1225.13 705.956 1225.13 706.38V717.908C1225.13 718.656 1224.91 719.387 1224.5 720.011C1224.09 720.635 1223.5 721.125 1222.82 721.422L1212.79 725.858C1212.24 726.098 1211.63 726.203 1211.03 726.163C1210.42 726.124 1209.83 725.941 1209.31 725.631L1201.77 721.195C1201.02 720.755 1200.14 720.583 1199.28 720.709L1186.05 722.604C1185.29 722.712 1184.52 722.591 1183.83 722.256C1183.15 721.921 1182.57 721.388 1182.19 720.725L1179.96 716.904C1179.48 716.08 1178.7 715.468 1177.79 715.188L1171.78 713.31C1171.08 713.087 1170.33 713.071 1169.62 713.263C1168.91 713.456 1168.28 713.849 1167.78 714.395L1159.45 723.656C1158.79 724.383 1157.88 724.834 1156.9 724.919L1144.6 725.955C1144.03 725.987 1143.47 726.154 1142.98 726.441L1121.53 738.778C1120.86 739.158 1120.09 739.329 1119.32 739.269C1118.55 739.208 1117.82 738.919 1117.22 738.438L1111.13 733.581C1110.45 733.04 1109.61 732.743 1108.74 732.739H1085.68C1085.1 732.741 1084.54 732.613 1084.02 732.363C1083.5 732.113 1083.04 731.749 1082.68 731.298L1076.87 724.045C1076.52 723.611 1076.09 723.258 1075.59 723.011C1075.09 722.764 1074.54 722.628 1073.99 722.612C1073.43 722.597 1072.88 722.703 1072.37 722.922C1071.86 723.141 1071.4 723.469 1071.03 723.883L1064.03 731.654C1063.4 732.356 1063.05 733.267 1063.05 734.212V830.775C1063.05 831.792 1063.45 832.768 1064.17 833.488C1064.89 834.208 1065.86 834.612 1066.88 834.612H1898.65C1899.16 834.612 1899.66 834.512 1900.13 834.318C1900.59 834.124 1901.02 833.84 1901.37 833.482C1901.73 833.124 1902.01 832.699 1902.2 832.232C1902.4 831.764 1902.49 831.264 1902.49 830.758L1902.27 525.836C1902.28 525.064 1902.06 524.306 1901.63 523.661C1901.21 523.016 1900.6 522.513 1899.88 522.219C1899.17 521.924 1898.38 521.85 1897.63 522.007C1896.87 522.164 1896.18 522.545 1895.64 523.1V523.1Z" fill="#266AFB"/>
<path opacity="0.3" d="M1894.9 648.142L1882.37 656.496C1881.93 656.793 1881.54 657.159 1881.22 657.581L1873.43 667.862C1872.96 668.472 1872.35 668.96 1871.65 669.286C1870.95 669.613 1870.18 669.769 1869.41 669.741L1866.87 669.611C1866 669.567 1865.16 669.285 1864.43 668.793C1863.71 668.302 1863.14 667.622 1862.78 666.826L1861.16 663.378C1860.79 662.568 1860.21 661.876 1859.48 661.381C1858.74 660.886 1857.88 660.609 1856.99 660.58C1856.11 660.551 1855.23 660.772 1854.46 661.218C1853.7 661.665 1853.07 662.317 1852.66 663.102L1849.42 669.303C1849.01 670.064 1848.41 670.7 1847.67 671.142C1846.93 671.584 1846.09 671.816 1845.22 671.813H1829.16C1828.1 671.818 1827.07 671.466 1826.24 670.814C1825.41 670.161 1824.82 669.247 1824.57 668.219L1820.71 652.789C1820.5 651.929 1820.05 651.146 1819.41 650.529C1818.77 649.913 1817.98 649.487 1817.11 649.3C1816.24 649.112 1815.34 649.172 1814.51 649.471C1813.67 649.77 1812.94 650.297 1812.39 650.992L1789.24 680.265C1788.58 681.097 1787.67 681.685 1786.64 681.935C1785.61 682.184 1784.53 682.081 1783.57 681.641L1768.69 674.922C1767.91 674.557 1767.05 674.411 1766.19 674.5C1765.34 674.588 1764.52 674.907 1763.83 675.424L1758.51 679.358C1758.25 679.548 1758.02 679.765 1757.81 680.006L1743.76 695.565C1743.28 696.107 1742.69 696.534 1742.03 696.814C1741.37 697.095 1740.65 697.221 1739.94 697.184L1730.76 696.601C1730.26 696.571 1729.75 696.615 1729.27 696.731L1720.99 698.852C1720.05 699.098 1719.05 699.047 1718.14 698.705C1717.23 698.363 1716.44 697.747 1715.89 696.941L1714.95 695.549C1714.5 694.895 1713.9 694.364 1713.19 694.005C1712.48 693.646 1711.7 693.47 1710.91 693.493L1701.68 693.768C1700.61 693.785 1699.59 694.175 1698.78 694.869L1696.51 696.763C1695.98 697.214 1695.35 697.54 1694.67 697.718C1693.99 697.896 1693.28 697.922 1692.59 697.793C1691.9 697.665 1691.25 697.385 1690.68 696.975C1690.12 696.564 1689.65 696.033 1689.31 695.419L1686.91 691.08C1686.33 690.019 1685.36 689.222 1684.21 688.852C1683.05 688.482 1681.8 688.566 1680.71 689.089L1665.18 696.553L1648 705.425C1647.44 705.713 1646.83 705.886 1646.2 705.934C1645.57 705.981 1644.94 705.902 1644.34 705.7L1630.66 701.167C1630.05 700.965 1629.4 700.888 1628.75 700.94L1602.27 703.191C1601.37 703.284 1600.51 703.625 1599.8 704.177C1599.08 704.729 1598.53 705.47 1598.22 706.316L1594.38 717.034C1594.15 717.678 1593.78 718.264 1593.3 718.753C1592.82 719.241 1592.24 719.619 1591.6 719.862C1590.96 720.105 1590.28 720.207 1589.59 720.16C1588.91 720.114 1588.25 719.92 1587.64 719.592L1587.48 719.511C1586.5 718.966 1585.35 718.79 1584.25 719.016C1583.15 719.241 1582.17 719.854 1581.48 720.742L1578.46 724.595C1577.66 725.598 1576.5 726.244 1575.23 726.392L1566.94 727.283C1566.47 727.33 1566.01 727.444 1565.58 727.623L1552.45 733.241C1551.85 733.484 1551.22 733.61 1550.58 733.613H1544.27C1543.5 733.613 1542.74 733.424 1542.05 733.063C1541.37 732.702 1540.79 732.179 1540.35 731.541L1539.44 730.213C1538.88 729.383 1538.06 728.756 1537.11 728.421C1536.16 728.086 1535.13 728.062 1534.17 728.351L1519.45 732.804C1518.44 733.108 1517.36 733.068 1516.37 732.691L1509.54 730.068C1509.02 729.864 1508.48 729.755 1507.92 729.744H1493.25C1492.62 729.743 1491.99 729.875 1491.41 730.132L1476.83 736.317C1475.81 736.759 1474.66 736.822 1473.6 736.495L1466.39 734.342C1465.69 734.133 1464.95 734.088 1464.23 734.212C1463.51 734.335 1462.82 734.624 1462.23 735.054L1459.07 737.37C1458.12 738.069 1456.93 738.385 1455.76 738.256C1454.58 738.128 1453.49 737.563 1452.71 736.673L1452.24 736.139C1451.6 735.412 1450.76 734.897 1449.82 734.663C1448.89 734.428 1447.9 734.486 1446.99 734.828L1435.26 739.313C1434.21 739.694 1433.06 739.694 1432.02 739.313L1426.87 737.467C1425.93 737.142 1424.91 737.114 1423.96 737.386L1419.1 738.794C1418.03 739.101 1416.9 739.026 1415.88 738.583C1414.87 738.139 1414.04 737.355 1413.54 736.366L1411.73 732.723C1411.34 731.936 1410.73 731.274 1409.98 730.811C1409.23 730.348 1408.37 730.102 1407.49 730.1H1403.28C1402.73 730.109 1402.18 730.022 1401.66 729.841L1385.32 724.109C1384.74 723.899 1384.11 723.808 1383.49 723.842C1382.87 723.875 1382.26 724.032 1381.7 724.304L1369.76 730.035C1369.12 730.34 1368.42 730.501 1367.71 730.505H1352.63C1352 730.508 1351.36 730.634 1350.77 730.877L1347.7 732.205C1346.73 732.613 1345.66 732.693 1344.65 732.433C1343.64 732.172 1342.74 731.586 1342.09 730.764V730.764C1341.65 730.194 1341.08 729.732 1340.44 729.415C1339.79 729.098 1339.08 728.933 1338.35 728.934H1330.74C1329.65 728.933 1328.58 729.31 1327.73 730.003L1323.31 733.63C1322.4 734.382 1321.25 734.766 1320.07 734.706C1318.89 734.646 1317.78 734.147 1316.95 733.306L1315.95 732.302C1315.3 731.649 1314.47 731.199 1313.57 731.006C1312.67 730.814 1311.74 730.887 1310.88 731.217L1306.47 732.917C1305.27 733.366 1303.94 733.32 1302.77 732.788L1287.27 725.599C1287 725.468 1286.71 725.37 1286.41 725.308L1274.25 722.312C1273.3 722.073 1272.29 722.141 1271.37 722.507C1270.45 722.873 1269.67 723.518 1269.14 724.352L1261.5 736.269C1261.2 736.726 1260.99 737.23 1260.87 737.758L1258.55 747.878C1258.27 749.033 1257.58 750.047 1256.61 750.727L1251.56 754.192C1250.94 754.616 1250.23 754.887 1249.49 754.982C1248.75 755.078 1248 754.996 1247.3 754.742L1236.9 751.051C1235.82 750.667 1234.63 750.692 1233.56 751.121C1232.49 751.55 1231.61 752.354 1231.09 753.382L1225.62 763.615C1225.26 764.305 1225.07 765.071 1225.07 765.849V770.464C1225.06 771.5 1224.72 772.507 1224.09 773.331C1223.46 774.155 1222.58 774.751 1221.59 775.03L1212.49 777.555C1211.52 777.829 1210.49 777.783 1209.56 777.426L1201.62 774.43C1200.95 774.173 1200.23 774.073 1199.52 774.139L1185.84 775.386C1185.11 775.457 1184.37 775.356 1183.69 775.092C1183.01 774.827 1182.39 774.407 1181.9 773.864L1180.28 772.067C1179.61 771.311 1178.7 770.798 1177.71 770.609L1171.48 769.347C1170.84 769.226 1170.18 769.234 1169.55 769.37C1168.92 769.506 1168.32 769.768 1167.78 770.14L1159.58 775.985C1158.84 776.501 1157.98 776.804 1157.08 776.859L1144.5 777.523C1144.03 777.553 1143.56 777.651 1143.11 777.814L1121.27 785.91C1120.66 786.142 1120 786.242 1119.35 786.202C1118.7 786.163 1118.06 785.986 1117.48 785.683L1111.16 782.445C1110.5 782.105 1109.76 781.927 1109.01 781.927H1085.53C1084.45 781.927 1083.4 781.555 1082.56 780.874L1076.87 776.325C1076.07 775.68 1075.07 775.315 1074.04 775.286C1073.01 775.257 1072 775.565 1071.16 776.163L1065.07 780.502C1064.45 780.942 1063.95 781.523 1063.61 782.196C1063.26 782.869 1063.08 783.615 1063.08 784.372V829.884C1063.08 831.142 1063.58 832.349 1064.47 833.239C1065.36 834.128 1066.56 834.628 1067.82 834.628H1897.75C1899.01 834.628 1900.21 834.128 1901.1 833.239C1901.99 832.349 1902.49 831.142 1902.49 829.884L1902.26 652.157C1902.28 651.294 1902.05 650.444 1901.62 649.699C1901.18 648.954 1900.55 648.342 1899.79 647.929C1899.03 647.516 1898.18 647.318 1897.32 647.355C1896.45 647.393 1895.62 647.665 1894.9 648.142V648.142Z" fill="#266AFB"/>
<path opacity="0.3" d="M1897.52 759.065L1882.12 764.198C1881.83 764.3 1881.55 764.436 1881.28 764.603L1872.83 770.189C1872.22 770.59 1871.49 770.793 1870.76 770.771L1865.5 770.642C1865.01 770.632 1864.52 770.522 1864.08 770.318C1863.63 770.115 1863.23 769.823 1862.91 769.46L1859.67 765.898C1859.35 765.542 1858.96 765.254 1858.52 765.051C1858.09 764.847 1857.62 764.732 1857.14 764.712C1856.66 764.693 1856.18 764.769 1855.73 764.936C1855.28 765.104 1854.87 765.359 1854.52 765.687L1849.06 770.804C1848.4 771.437 1847.52 771.791 1846.6 771.791H1827.69C1827.02 771.796 1826.35 771.61 1825.78 771.254C1825.21 770.899 1824.75 770.389 1824.45 769.784L1820.13 761.154C1819.9 760.704 1819.59 760.306 1819.2 759.985C1818.81 759.665 1818.36 759.429 1817.87 759.294C1817.39 759.158 1816.88 759.125 1816.38 759.197C1815.88 759.27 1815.41 759.445 1814.98 759.713L1788.22 776.665C1787.41 777.172 1786.43 777.341 1785.5 777.134L1767.17 773.006C1766.49 772.846 1765.78 772.891 1765.13 773.135L1758.44 775.612C1758.27 775.668 1758.1 775.744 1757.94 775.839L1743.16 784.032C1742.59 784.343 1741.95 784.499 1741.3 784.485L1730.35 784.129C1730.16 784.112 1729.97 784.112 1729.78 784.129L1719.26 785.473C1718.34 785.585 1717.42 785.348 1716.67 784.809L1714.53 783.19C1713.9 782.723 1713.13 782.478 1712.35 782.494L1700.8 782.655C1700.34 782.656 1699.88 782.749 1699.46 782.931L1694.28 785.116C1693.64 785.379 1692.95 785.456 1692.27 785.338C1691.59 785.221 1690.97 784.914 1690.46 784.453L1686.21 780.696C1685.78 780.307 1685.26 780.028 1684.7 779.884C1684.13 779.74 1683.54 779.736 1682.98 779.871L1665.26 784.145L1647.05 788.857C1646.56 788.962 1646.05 788.962 1645.56 788.857L1630.18 786.298C1629.93 786.282 1629.68 786.282 1629.43 786.298L1600.99 787.577C1600.44 787.602 1599.91 787.75 1599.43 788.011C1598.95 788.272 1598.53 788.638 1598.22 789.083L1593.93 794.993C1593.5 795.593 1592.9 796.047 1592.2 796.293C1591.51 796.54 1590.75 796.566 1590.04 796.369L1585.46 795.106C1584.97 794.978 1584.46 794.952 1583.96 795.03C1583.46 795.108 1582.99 795.288 1582.56 795.56L1577.98 798.49C1577.45 798.817 1576.85 799.006 1576.23 799.041L1566.52 799.575C1566.33 799.559 1566.15 799.559 1565.97 799.575L1551.94 802.57C1551.69 802.621 1551.44 802.648 1551.18 802.651H1542.96C1542.19 802.651 1541.45 802.407 1540.84 801.955L1538.7 800.336C1538.32 800.055 1537.89 799.851 1537.44 799.737C1536.98 799.623 1536.51 799.601 1536.04 799.672L1518.54 802.295C1518.14 802.36 1517.73 802.36 1517.33 802.295L1509.1 800.676C1508.88 800.652 1508.65 800.652 1508.42 800.676H1492.64C1492.39 800.652 1492.14 800.652 1491.89 800.676L1475.88 804.076C1475.45 804.157 1475.01 804.157 1474.58 804.076L1465.05 802.635C1464.45 802.553 1463.84 802.62 1463.27 802.829L1457.15 805.064C1456.65 805.247 1456.13 805.32 1455.6 805.275C1455.08 805.23 1454.57 805.069 1454.12 804.805L1451.22 803.185C1450.48 802.751 1449.61 802.601 1448.78 802.765L1434.2 805.533C1433.77 805.614 1433.33 805.614 1432.89 805.533L1425.88 804.286C1425.5 804.23 1425.11 804.23 1424.73 804.286L1416.99 805.404C1416.44 805.488 1415.87 805.442 1415.34 805.267C1414.81 805.093 1414.33 804.796 1413.93 804.4L1411.38 801.955C1410.69 801.286 1409.77 800.909 1408.82 800.903H1402.68C1402.48 800.919 1402.27 800.919 1402.07 800.903L1384.16 797.761C1383.67 797.656 1383.17 797.656 1382.68 797.761L1369.15 801C1368.87 801.065 1368.59 801.097 1368.31 801.097H1352C1351.76 801.072 1351.51 801.072 1351.26 801.097L1345.74 802.279C1344.81 802.537 1343.81 802.421 1342.97 801.955L1341.45 800.967C1340.87 800.598 1340.19 800.401 1339.5 800.401H1329.64C1329.18 800.403 1328.71 800.496 1328.28 800.676L1321.39 803.493C1320.91 803.692 1320.4 803.784 1319.88 803.765C1319.37 803.745 1318.87 803.614 1318.41 803.38L1314.75 801.534C1314.04 801.178 1313.23 801.064 1312.45 801.21L1305.23 802.603C1304.74 802.708 1304.23 802.708 1303.74 802.603L1287 798.717H1286.62L1272.39 796.952C1271.44 796.844 1270.49 797.112 1269.74 797.697L1261.64 803.979C1261.19 804.329 1260.83 804.785 1260.59 805.306L1258.78 809.338C1258.57 809.781 1258.28 810.179 1257.92 810.507C1257.56 810.835 1257.13 811.087 1256.67 811.248L1250.45 813.369C1249.88 813.579 1249.26 813.629 1248.66 813.515L1234.83 811.054C1234.28 810.959 1233.71 810.993 1233.18 811.153C1232.64 811.313 1232.15 811.595 1231.74 811.977L1226.25 817.11C1225.89 817.448 1225.6 817.857 1225.41 818.311C1225.21 818.765 1225.11 819.255 1225.12 819.749C1225.12 820.618 1224.8 821.458 1224.23 822.113C1223.66 822.768 1222.87 823.193 1222.01 823.311L1211.63 824.752C1211.24 824.816 1210.85 824.816 1210.46 824.752L1201.07 822.971C1200.79 822.938 1200.51 822.938 1200.23 822.971L1184.54 823.683C1183.88 823.708 1183.23 823.558 1182.65 823.246L1179.89 821.74C1179.47 821.498 1179 821.35 1178.52 821.303L1170.28 820.477C1169.73 820.421 1169.18 820.487 1168.66 820.672L1158.94 824.12C1158.58 824.248 1158.21 824.319 1157.83 824.331L1144.02 824.703C1143.83 824.687 1143.64 824.687 1143.45 824.703L1120.05 829.026C1119.55 829.131 1119.02 829.131 1118.52 829.026L1110.55 826.986C1110.25 826.915 1109.95 826.877 1109.64 826.873H1084.53C1084.07 826.877 1083.61 826.789 1083.19 826.614L1075.32 823.473C1074.49 823.157 1073.58 823.157 1072.76 823.473L1065.44 826.079C1064.74 826.325 1064.13 826.782 1063.7 827.389C1063.27 827.995 1063.04 828.72 1063.05 829.463V831.082C1063.04 831.556 1063.13 832.025 1063.31 832.463C1063.49 832.901 1063.76 833.299 1064.09 833.634C1064.43 833.97 1064.82 834.236 1065.26 834.418C1065.7 834.599 1066.17 834.693 1066.64 834.693H1898.85C1899.32 834.693 1899.79 834.599 1900.23 834.418C1900.67 834.236 1901.06 833.97 1901.4 833.634C1901.73 833.299 1901.99 832.901 1902.17 832.463C1902.35 832.025 1902.45 831.556 1902.44 831.082L1902.23 762.644C1902.26 762.063 1902.14 761.486 1901.89 760.961C1901.64 760.436 1901.27 759.979 1900.81 759.628C1900.35 759.277 1899.81 759.042 1899.23 758.944C1898.66 758.846 1898.07 758.888 1897.52 759.065V759.065Z" fill="#266AFB"/>
<path d="M1274.9 734.374C1281.16 734.374 1286.24 729.3 1286.24 723.041C1286.24 716.781 1281.16 711.707 1274.9 711.707C1268.64 711.707 1263.57 716.781 1263.57 723.041C1263.57 729.3 1268.64 734.374 1274.9 734.374Z" fill="#266AFB"/>
<path d="M1903.88 652.06C1903.88 651.204 1903.65 650.365 1903.2 649.631C1902.76 648.898 1902.13 648.297 1901.38 647.894C1900.62 647.491 1899.77 647.299 1898.91 647.34C1898.06 647.381 1897.23 647.652 1896.52 648.126L1883.99 656.48C1883.55 656.777 1883.16 657.143 1882.84 657.565L1875.05 667.846C1874.58 668.455 1873.97 668.943 1873.27 669.27C1872.57 669.597 1871.8 669.752 1871.03 669.724L1868.49 669.595C1867.62 669.551 1866.77 669.268 1866.05 668.777C1865.33 668.286 1864.76 667.605 1864.39 666.81L1862.78 663.361C1862.41 662.551 1861.83 661.859 1861.1 661.365C1860.36 660.87 1859.5 660.592 1858.61 660.564C1857.73 660.535 1856.85 660.756 1856.08 661.202C1855.31 661.648 1854.69 662.301 1854.28 663.086L1851.04 669.287C1850.63 670.048 1850.03 670.684 1849.29 671.126C1848.55 671.568 1847.71 671.8 1846.84 671.797H1830.78C1829.72 671.802 1828.69 671.449 1827.86 670.797C1827.03 670.145 1826.44 669.231 1826.18 668.202L1822.33 652.773C1822.12 651.913 1821.67 651.13 1821.03 650.513C1820.39 649.896 1819.6 649.47 1818.73 649.283C1817.86 649.096 1816.96 649.156 1816.13 649.455C1815.29 649.754 1814.56 650.281 1814.01 650.975L1790.86 680.248C1790.2 681.081 1789.29 681.669 1788.26 681.919C1787.23 682.168 1786.15 682.065 1785.19 681.625L1770.31 674.905C1769.53 674.541 1768.67 674.395 1767.81 674.483C1766.96 674.572 1766.14 674.891 1765.45 675.407L1760.13 679.342C1759.87 679.532 1759.64 679.749 1759.43 679.989L1745.38 695.549C1744.9 696.091 1744.31 696.518 1743.65 696.798C1742.99 697.079 1742.27 697.205 1741.55 697.168L1732.37 696.585C1731.87 696.555 1731.37 696.599 1730.89 696.715L1722.61 698.836C1721.67 699.082 1720.67 699.03 1719.76 698.688C1718.85 698.346 1718.06 697.73 1717.51 696.925L1716.57 695.533C1716.12 694.879 1715.52 694.348 1714.81 693.989C1714.1 693.63 1713.32 693.453 1712.52 693.476L1703.3 693.752C1702.23 693.769 1701.21 694.159 1700.4 694.853L1698.13 696.747C1697.59 697.197 1696.96 697.524 1696.29 697.702C1695.61 697.88 1694.9 697.905 1694.21 697.777C1693.52 697.648 1692.87 697.369 1692.3 696.958C1691.73 696.548 1691.26 696.017 1690.93 695.403L1688.53 691.064C1687.95 690.003 1686.98 689.206 1685.83 688.836C1684.67 688.466 1683.42 688.55 1682.33 689.072L1666.8 696.536L1649.62 705.409C1649.06 705.697 1648.45 705.87 1647.82 705.917C1647.19 705.965 1646.56 705.885 1645.96 705.684L1632.28 701.151C1631.67 700.949 1631.02 700.872 1630.37 700.924L1603.88 703.191C1602.99 703.284 1602.13 703.625 1601.42 704.177C1600.7 704.729 1600.15 705.47 1599.84 706.316L1596 717.034C1595.77 717.678 1595.4 718.264 1594.92 718.753C1594.44 719.241 1593.86 719.619 1593.22 719.862C1592.58 720.105 1591.9 720.207 1591.21 720.16C1590.53 720.114 1589.86 719.92 1589.26 719.592L1589.1 719.511C1588.12 718.966 1586.97 718.79 1585.87 719.016C1584.77 719.241 1583.78 719.854 1583.1 720.742L1580.08 724.595C1579.28 725.598 1578.12 726.244 1576.85 726.392L1568.56 727.283C1568.09 727.33 1567.63 727.444 1567.2 727.623L1554.06 733.241C1553.47 733.484 1552.84 733.611 1552.2 733.613H1545.89C1545.12 733.613 1544.36 733.424 1543.67 733.063C1542.99 732.702 1542.41 732.179 1541.97 731.541L1541.06 730.213C1540.5 729.383 1539.68 728.756 1538.73 728.421C1537.78 728.086 1536.75 728.062 1535.79 728.351L1521.07 732.804C1520.06 733.108 1518.98 733.068 1517.99 732.691L1511.16 730.068C1510.64 729.864 1510.09 729.755 1509.54 729.744H1494.87C1494.24 729.743 1493.61 729.875 1493.03 730.132L1478.45 736.317C1477.43 736.759 1476.28 736.823 1475.22 736.495L1468.01 734.342C1467.31 734.133 1466.57 734.088 1465.85 734.212C1465.13 734.335 1464.44 734.624 1463.85 735.054L1460.69 737.37C1459.74 738.069 1458.55 738.385 1457.38 738.256C1456.2 738.128 1455.11 737.563 1454.33 736.673L1453.86 736.139C1453.22 735.412 1452.38 734.897 1451.44 734.663C1450.5 734.428 1449.52 734.486 1448.61 734.828L1436.88 739.313C1435.83 739.694 1434.68 739.694 1433.64 739.313L1428.49 737.467C1427.55 737.142 1426.53 737.114 1425.57 737.386L1420.72 738.794C1419.65 739.101 1418.52 739.026 1417.5 738.583C1416.49 738.139 1415.66 737.355 1415.16 736.366L1413.35 732.723C1412.96 731.936 1412.35 731.274 1411.6 730.811C1410.85 730.348 1409.99 730.102 1409.11 730.1H1404.9C1404.35 730.109 1403.8 730.022 1403.28 729.841L1386.94 724.109C1386.36 723.899 1385.73 723.808 1385.11 723.842C1384.49 723.875 1383.88 724.032 1383.32 724.304L1371.38 730.035C1370.74 730.34 1370.04 730.501 1369.33 730.505H1354.25C1353.61 730.508 1352.98 730.634 1352.39 730.877L1349.32 732.205C1348.35 732.613 1347.28 732.693 1346.27 732.433C1345.26 732.172 1344.36 731.586 1343.71 730.764C1343.27 730.194 1342.7 729.732 1342.06 729.415C1341.41 729.098 1340.7 728.934 1339.97 728.934H1332.36C1331.27 728.933 1330.2 729.31 1329.35 730.003L1324.93 733.63C1324.02 734.382 1322.87 734.766 1321.69 734.706C1320.51 734.646 1319.4 734.147 1318.57 733.306L1317.57 732.302C1316.92 731.649 1316.09 731.199 1315.19 731.006C1314.29 730.814 1313.36 730.887 1312.5 731.217L1308.09 732.917C1306.89 733.366 1305.56 733.32 1304.39 732.788L1288.89 725.599C1288.62 725.468 1288.33 725.37 1288.03 725.308L1275.87 722.312C1274.91 722.073 1273.9 722.141 1272.99 722.507C1272.07 722.873 1271.29 723.519 1270.76 724.352L1263.12 736.269C1262.82 736.726 1262.61 737.23 1262.48 737.758L1260.17 747.878C1259.89 749.033 1259.2 750.047 1258.23 750.727L1253.17 754.192C1252.56 754.616 1251.85 754.887 1251.11 754.982C1250.37 755.078 1249.62 754.996 1248.92 754.742L1238.52 751.051C1237.43 750.667 1236.25 750.692 1235.18 751.121C1234.11 751.55 1233.23 752.354 1232.71 753.382L1227.24 763.615C1226.88 764.305 1226.69 765.071 1226.69 765.849V770.464C1226.68 771.5 1226.34 772.507 1225.71 773.331C1225.08 774.155 1224.2 774.751 1223.21 775.03L1214.11 777.555C1213.14 777.829 1212.11 777.783 1211.18 777.426L1203.24 774.431C1202.57 774.173 1201.85 774.073 1201.14 774.139L1187.46 775.386C1186.73 775.457 1185.99 775.356 1185.31 775.092C1184.62 774.827 1184.01 774.407 1183.52 773.864L1181.9 772.067C1181.23 771.311 1180.32 770.798 1179.33 770.61L1173.09 769.347C1172.46 769.226 1171.8 769.234 1171.17 769.37C1170.53 769.506 1169.93 769.768 1169.4 770.14L1161.19 775.985C1160.46 776.501 1159.6 776.804 1158.7 776.859L1146.12 777.523C1145.64 777.553 1145.18 777.651 1144.73 777.814L1122.89 785.91C1122.28 786.142 1121.62 786.242 1120.97 786.202C1120.32 786.163 1119.68 785.986 1119.1 785.683L1112.78 782.445C1112.12 782.105 1111.38 781.927 1110.63 781.927H1087.15C1086.07 781.927 1085.02 781.555 1084.17 780.875L1078.49 776.325C1077.69 775.68 1076.69 775.315 1075.66 775.286C1074.63 775.257 1073.62 775.565 1072.78 776.163L1066.69 780.502C1066.07 780.942 1065.57 781.523 1065.22 782.196C1064.88 782.869 1064.7 783.615 1064.7 784.372" stroke="#266AFB" stroke-miterlimit="10"/>
<path opacity="0.2" d="M1963.01 901.059H1015.85V901.221H1963.01V901.059Z" fill="#F2F2F2"/>
<path opacity="0.3" d="M1161.57 909.235C1166.04 909.235 1169.66 905.611 1169.66 901.14C1169.66 896.669 1166.04 893.045 1161.57 893.045C1157.1 893.045 1153.47 896.669 1153.47 901.14C1153.47 905.611 1157.1 909.235 1161.57 909.235Z" fill="#266AFB"/>
<path opacity="0.3" d="M1279.76 909.235C1284.23 909.235 1287.86 905.611 1287.86 901.14C1287.86 896.669 1284.23 893.045 1279.76 893.045C1275.29 893.045 1271.66 896.669 1271.66 901.14C1271.66 905.611 1275.29 909.235 1279.76 909.235Z" fill="#266AFB"/>
<path opacity="0.3" d="M1397.95 909.235C1402.42 909.235 1406.05 905.611 1406.05 901.14C1406.05 896.669 1402.42 893.045 1397.95 893.045C1393.48 893.045 1389.86 896.669 1389.86 901.14C1389.86 905.611 1393.48 909.235 1397.95 909.235Z" fill="#266AFB"/>
</g>
</g>
<defs>
<clipPath id="clip0">
<rect width="1500" height="1536" fill="white"/>
</clipPath>
<clipPath id="clip1">
<rect width="1842.4" height="1200" fill="white" transform="translate(561 87)"/>
</clipPath>
</defs>
</svg>
