<svg width="29" height="30" viewBox="0 0 29 30" fill="none" xmlns="http://www.w3.org/2000/svg">
<path d="M5.21739 0V1.30435H0V30H28.6957V1.30435H23.4783V0H20.8696V1.30435H7.82609V0H5.21739ZM2.6087 3.91304H5.21739V5.21739H7.82609V3.91304H20.8696V5.21739H23.4783V3.91304H26.087V6.52174H2.6087V3.91304ZM2.6087 9.13044H26.087V27.3913H2.6087V9.13044ZM10.4348 11.7391V14.3478H13.0435V11.7391H10.4348ZM15.6522 11.7391V14.3478H18.2609V11.7391H15.6522ZM20.8696 11.7391V14.3478H23.4783V11.7391H20.8696ZM5.21739 16.9565V19.5652H7.82609V16.9565H5.21739ZM10.4348 16.9565V19.5652H13.0435V16.9565H10.4348ZM15.6522 16.9565V19.5652H18.2609V16.9565H15.6522ZM20.8696 16.9565V19.5652H23.4783V16.9565H20.8696ZM5.21739 22.1739V24.7826H7.82609V22.1739H5.21739ZM10.4348 22.1739V24.7826H13.0435V22.1739H10.4348ZM15.6522 22.1739V24.7826H18.2609V22.1739H15.6522Z" fill="black"/>
</svg>
