<svg width="35" height="34" viewBox="0 0 35 34" fill="none" xmlns="http://www.w3.org/2000/svg">
<path fill-rule="evenodd" clip-rule="evenodd" d="M30.625 2.1875H4.375C3.79484 2.1875 3.23844 2.41797 2.8282 2.8282C2.41797 3.23844 2.1875 3.79484 2.1875 4.375V21.875C2.1875 22.4552 2.41797 23.0116 2.8282 23.4218C3.23844 23.832 3.79484 24.0625 4.375 24.0625H9.84375C10.5229 24.0625 11.1928 24.2206 11.8003 24.5244C12.4078 24.8281 12.9362 25.2691 13.3438 25.8125L17.5 31.3534L21.6562 25.8125C22.0638 25.2691 22.5922 24.8281 23.1997 24.5244C23.8072 24.2206 24.4771 24.0625 25.1562 24.0625H30.625C31.2052 24.0625 31.7616 23.832 32.1718 23.4218C32.582 23.0116 32.8125 22.4552 32.8125 21.875V4.375C32.8125 3.79484 32.582 3.23844 32.1718 2.8282C31.7616 2.41797 31.2052 2.1875 30.625 2.1875ZM4.375 0C3.21468 0 2.10188 0.460936 1.28141 1.28141C0.460936 2.10188 0 3.21468 0 4.375L0 21.875C0 23.0353 0.460936 24.1481 1.28141 24.9686C2.10188 25.7891 3.21468 26.25 4.375 26.25H9.84375C10.1833 26.25 10.5183 26.3291 10.822 26.4809C11.1258 26.6328 11.39 26.8533 11.5938 27.125L15.75 32.6659C15.9538 32.9376 16.218 33.1581 16.5217 33.31C16.8255 33.4619 17.1604 33.5409 17.5 33.5409C17.8396 33.5409 18.1745 33.4619 18.4783 33.31C18.782 33.1581 19.0462 32.9376 19.25 32.6659L23.4062 27.125C23.61 26.8533 23.8742 26.6328 24.178 26.4809C24.4817 26.3291 24.8167 26.25 25.1562 26.25H30.625C31.7853 26.25 32.8981 25.7891 33.7186 24.9686C34.5391 24.1481 35 23.0353 35 21.875V4.375C35 3.21468 34.5391 2.10188 33.7186 1.28141C32.8981 0.460936 31.7853 0 30.625 0L4.375 0Z" fill="black"/>
<path d="M10.9375 13.125C10.9375 13.7052 10.707 14.2616 10.2968 14.6718C9.88656 15.082 9.33016 15.3125 8.75 15.3125C8.16984 15.3125 7.61344 15.082 7.2032 14.6718C6.79297 14.2616 6.5625 13.7052 6.5625 13.125C6.5625 12.5448 6.79297 11.9884 7.2032 11.5782C7.61344 11.168 8.16984 10.9375 8.75 10.9375C9.33016 10.9375 9.88656 11.168 10.2968 11.5782C10.707 11.9884 10.9375 12.5448 10.9375 13.125ZM19.6875 13.125C19.6875 13.7052 19.457 14.2616 19.0468 14.6718C18.6366 15.082 18.0802 15.3125 17.5 15.3125C16.9198 15.3125 16.3634 15.082 15.9532 14.6718C15.543 14.2616 15.3125 13.7052 15.3125 13.125C15.3125 12.5448 15.543 11.9884 15.9532 11.5782C16.3634 11.168 16.9198 10.9375 17.5 10.9375C18.0802 10.9375 18.6366 11.168 19.0468 11.5782C19.457 11.9884 19.6875 12.5448 19.6875 13.125ZM28.4375 13.125C28.4375 13.7052 28.207 14.2616 27.7968 14.6718C27.3866 15.082 26.8302 15.3125 26.25 15.3125C25.6698 15.3125 25.1134 15.082 24.7032 14.6718C24.293 14.2616 24.0625 13.7052 24.0625 13.125C24.0625 12.5448 24.293 11.9884 24.7032 11.5782C25.1134 11.168 25.6698 10.9375 26.25 10.9375C26.8302 10.9375 27.3866 11.168 27.7968 11.5782C28.207 11.9884 28.4375 12.5448 28.4375 13.125Z" fill="black"/>
</svg>
