<svg width="39" height="30" viewBox="0 0 39 30" fill="none" xmlns="http://www.w3.org/2000/svg">
<path d="M16.5 0C15.153 0 14.1555 0.75 13.266 1.734C12.381 2.7075 11.661 4.032 11.2965 5.625C11.2905 5.643 11.3025 5.655 11.2965 5.6715C10.905 7.1715 10.347 9.762 9.891 12C8.841 11.0925 7.5 10.5 6 10.5C2.685 10.5 0 13.185 0 16.5C0 19.6575 0.8145 23.2155 3.7965 25.8285C6.78 28.44 11.649 30 19.5 30C27.357 30 32.274 28.4115 35.25 25.7805C38.226 23.151 39 19.59 39 16.5C39 13.185 36.315 10.5 33 10.5C31.5708 10.5031 30.1902 11.0189 29.109 11.9535L29.0625 11.907C29.0625 11.901 29.016 11.9115 29.016 11.907C28.482 9.4335 28.056 7.353 27.7035 5.6715C27.345 3.984 26.5905 2.619 25.6875 1.641C24.7845 0.66 23.7885 0 22.5 0C21.276 0 20.472 0.627 19.9215 1.032C19.728 1.1715 19.623 1.272 19.5 1.359C19.377 1.272 19.272 1.1715 19.0785 1.032C18.528 0.627 17.724 0 16.5 0ZM16.5 3C16.476 3 16.8345 3.123 17.2965 3.4695C17.5305 3.639 17.772 3.8265 18.093 4.0305C18.4155 4.236 18.8145 4.5 19.5 4.5C20.1855 4.5 20.5845 4.236 20.907 4.0305C21.228 3.8265 21.4695 3.639 21.702 3.4695C22.167 3.123 22.524 3 22.5 3C22.4115 3 22.9635 3.141 23.484 3.7035C24.006 4.266 24.5505 5.1675 24.7965 6.3285C25.2135 8.2965 25.8165 11.0985 26.3445 13.5465C26.268 13.599 26.2035 13.635 26.109 13.6875C25.095 14.28 23.127 15 19.5 15C15.873 15 13.905 14.28 12.891 13.6875C12.774 13.623 12.7035 13.5645 12.609 13.5C13.125 11.01 13.77 8.016 14.2035 6.375V6.3285C14.4435 5.244 14.9835 4.3425 15.516 3.75C16.0485 3.1575 16.653 3 16.5 3ZM6 13.5C7.74 13.5 8.9355 14.655 9 16.359V16.407C8.93613 16.6868 8.95224 16.9789 9.0465 17.25C9.05934 17.2978 9.07487 17.3449 9.093 17.391C9.387 20.3145 11.0325 22.272 13.032 23.109C15.228 24.0345 17.625 24 19.5 24C21.4155 24 23.8425 23.976 26.016 23.016C28.0365 22.119 29.724 20.097 29.9535 17.1555C30.0184 16.9433 30.0343 16.7192 30 16.5V16.4535C30.0059 16.3911 30.0059 16.3284 30 16.266C30.099 14.607 31.2945 13.5 33 13.5C34.7865 13.5 36 14.7135 36 16.5C36 19.113 35.4315 21.5925 33.234 23.532C31.0365 25.47 26.9415 27 19.5 27C12.0525 27 7.9575 25.5 5.766 23.5785C3.5745 21.6555 3 19.1955 3 16.5C3 14.7135 4.2135 13.5 6 13.5ZM12 16.5945C13.5885 17.367 15.9255 18 19.5 18C23.0745 18 25.4115 17.367 27 16.593C26.976 18.9075 26.1615 19.647 24.7965 20.25C23.4075 20.865 21.3345 21 19.5 21C17.625 21 15.522 20.9655 14.1555 20.391C12.8085 19.821 12.018 19.0785 12 16.593V16.5945Z" fill="black"/>
</svg>
