<svg width="50" height="30" viewBox="0 0 50 30" fill="none" xmlns="http://www.w3.org/2000/svg">
<path d="M13.3333 0C7.83333 0 3.33333 4.5 3.33333 10C3.33333 13.3067 4.96167 16.25 7.44833 18.0733C3.05333 20.2533 0 24.7733 0 30H3.33333C3.33333 24.46 7.79333 20 13.3333 20C18.8733 20 23.3333 24.46 23.3333 30H26.6667C26.6667 24.46 31.1267 20 36.6667 20C42.2067 20 46.6667 24.46 46.6667 30H50C50 24.7717 46.9467 20.2533 42.5517 18.0733C43.8242 17.1461 44.86 15.9318 45.575 14.529C46.29 13.1262 46.664 11.5745 46.6667 10C46.6667 4.5 42.1667 0 36.6667 0C31.1667 0 26.6667 4.5 26.6667 10C26.6667 13.3067 28.295 16.25 30.7817 18.0733C28.3466 19.2706 26.3309 21.177 25 23.5417C23.6691 21.177 21.6534 19.2706 19.2183 18.0733C20.4908 17.1461 21.5267 15.9318 22.2417 14.529C22.9567 13.1262 23.3307 11.5745 23.3333 10C23.3333 4.5 18.8333 0 13.3333 0ZM13.3333 3.33333C17.0383 3.33333 20 6.295 20 10C20 13.705 17.0383 16.6667 13.3333 16.6667C9.62833 16.6667 6.66667 13.705 6.66667 10C6.66667 6.295 9.62833 3.33333 13.3333 3.33333ZM36.6667 3.33333C40.3717 3.33333 43.3333 6.295 43.3333 10C43.3333 13.705 40.3717 16.6667 36.6667 16.6667C32.9617 16.6667 30 13.705 30 10C30 6.295 32.9617 3.33333 36.6667 3.33333Z" fill="black"/>
</svg>
