<svg width="2832" height="911" viewBox="0 0 2832 911" fill="none" xmlns="http://www.w3.org/2000/svg">
<rect y="71" width="2832" height="840" fill="#F7F8FA"/>
<g clip-path="url(#clip0)">
<path d="M2122.42 750C2399.16 750 2623.5 735.049 2623.5 716.606C2623.5 698.163 2399.16 683.213 2122.42 683.213C1845.67 683.213 1621.33 698.163 1621.33 716.606C1621.33 735.049 1845.67 750 2122.42 750Z" fill="#DFDFDF"/>
<path d="M2139.24 717.618L1958.93 715.311L1959.46 710.687L1968.18 634.397H2126.53L2138.18 710.687L2139.07 716.465L2139.24 717.618Z" fill="#2F2E41"/>
<path opacity="0.1" d="M2139.07 716.465H2049.08L1958.93 715.311L1959.46 710.687H2138.18L2139.07 716.465Z" fill="black"/>
<path d="M2168.15 711.84H1928.88V717.618H2168.15V711.84Z" fill="#3F3D56"/>
<path d="M2396.44 176.187C2396.45 174.211 2396.07 172.252 2395.32 170.423C2394.57 168.594 2393.47 166.93 2392.08 165.526C2390.69 164.122 2389.03 163.006 2387.21 162.241C2385.39 161.476 2383.44 161.078 2381.46 161.068H1713.26C1711.29 161.078 1709.33 161.476 1707.51 162.241C1705.69 163.006 1704.04 164.122 1702.64 165.526C1701.25 166.93 1700.15 168.594 1699.41 170.423C1698.66 172.252 1698.28 174.211 1698.29 176.187V581.221H2396.44V176.187Z" fill="#3F3D56"/>
<path d="M1698.29 577.183V624.622C1698.29 628.594 1699.87 632.404 1702.67 635.212C1705.48 638.021 1709.29 639.599 1713.26 639.599H2381.46C2385.43 639.599 2389.24 638.021 2392.05 635.212C2394.86 632.404 2396.44 628.594 2396.44 624.622V577.183H1698.29Z" fill="#3F3D56"/>
<path d="M2371 186.498H1727.18V550.6H2371V186.498Z" fill="#2F2E41"/>
<path d="M2050.79 621.597C2053.16 621.599 2055.49 621.064 2057.62 620.031C2059.74 618.999 2061.61 617.496 2063.07 615.636C2063.51 615.068 2063.92 614.47 2064.28 613.845L2055.72 612.439L2064.98 612.51C2065.87 610.577 2066.35 608.484 2066.4 606.358C2066.45 604.232 2066.07 602.118 2065.28 600.144L2052.86 606.59L2064.31 598.171C2063.24 596.321 2061.79 594.713 2060.07 593.446C2058.34 592.179 2056.38 591.279 2054.29 590.804C2052.21 590.328 2050.05 590.287 2047.94 590.682C2045.84 591.077 2043.84 591.9 2042.07 593.1C2040.3 594.3 2038.79 595.852 2037.65 597.658C2036.5 599.464 2035.74 601.487 2035.41 603.601C2035.08 605.714 2035.18 607.873 2035.72 609.944C2036.26 612.014 2037.22 613.952 2038.54 615.636C2040 617.493 2041.86 618.995 2043.98 620.027C2046.1 621.06 2048.43 621.596 2050.79 621.597Z" fill="#266AFB"/>
<path opacity="0.1" d="M2066.43 639.599L2138.36 711.84L2127.32 639.599H2066.43Z" fill="black"/>
<path opacity="0.3" d="M1777.18 326.964H1755.77V333.46H1777.18V326.964Z" fill="#266AFB"/>
<path opacity="0.3" d="M2348.26 327.156H2326.86V333.653H2348.26V327.156Z" fill="#266AFB"/>
<path opacity="0.3" d="M1777.37 372.632H1755.97V379.129H1777.37V372.632Z" fill="#266AFB"/>
<path opacity="0.3" d="M1777.56 418.3H1756.16V424.797H1777.56V418.3Z" fill="#266AFB"/>
<path opacity="0.3" d="M1777.75 463.958H1756.35V470.455H1777.75V463.958Z" fill="#266AFB"/>
<g opacity="0.2">
<path opacity="0.2" d="M1783.25 330.091H1777.18V330.344H1783.25V330.091Z" fill="#F2F2F2"/>
<path opacity="0.2" d="M2308.47 330.344H2296.54V330.091H2308.47V330.344ZM2284.6 330.344H2272.67V330.091H2284.6V330.344ZM2260.73 330.344H2248.79V330.091H2260.73V330.344ZM2236.86 330.344H2224.91V330.091H2236.86V330.344ZM2212.98 330.344H2201.04V330.091H2212.98V330.344ZM2189.1 330.344H2177.17V330.091H2189.1V330.344ZM2165.23 330.344H2153.29V330.091H2165.23V330.344ZM2141.36 330.344H2129.42V330.091H2141.36V330.344ZM2117.49 330.344H2105.55V330.091H2117.49V330.344ZM2093.61 330.344H2081.68V330.091H2093.61V330.344ZM2069.74 330.344H2057.79V330.091H2069.74V330.344ZM2045.86 330.344H2033.92V330.091H2045.86V330.344ZM2021.99 330.344H2010.05V330.091H2021.99V330.344ZM1998.11 330.344H1986.18V330.091H1998.11V330.344ZM1974.24 330.344H1962.31V330.091H1974.24V330.344ZM1950.37 330.344H1938.47V330.091H1950.41L1950.37 330.344ZM1926.5 330.344H1914.56V330.091H1926.5V330.344ZM1902.62 330.344H1890.68V330.091H1902.62V330.344ZM1878.74 330.344H1866.81V330.091H1878.76L1878.74 330.344ZM1854.87 330.344H1842.93V330.091H1854.87V330.344ZM1831 330.344H1819.06V330.091H1831V330.344ZM1807.12 330.344H1795.19V330.091H1807.12V330.344Z" fill="#F2F2F2"/>
<path opacity="0.2" d="M2326.48 330.091H2320.41V330.344H2326.48V330.091Z" fill="#F2F2F2"/>
<path opacity="0.2" d="M1783.25 330.091H1777.18V330.344H1783.25V330.091Z" fill="#F2F2F2"/>
<path opacity="0.2" d="M2308.47 330.344H2296.54V330.091H2308.47V330.344ZM2284.6 330.344H2272.67V330.091H2284.6V330.344ZM2260.73 330.344H2248.79V330.091H2260.73V330.344ZM2236.86 330.344H2224.91V330.091H2236.86V330.344ZM2212.98 330.344H2201.04V330.091H2212.98V330.344ZM2189.1 330.344H2177.17V330.091H2189.1V330.344ZM2165.23 330.344H2153.29V330.091H2165.23V330.344ZM2141.36 330.344H2129.42V330.091H2141.36V330.344ZM2117.49 330.344H2105.55V330.091H2117.49V330.344ZM2093.61 330.344H2081.68V330.091H2093.61V330.344ZM2069.74 330.344H2057.79V330.091H2069.74V330.344ZM2045.86 330.344H2033.92V330.091H2045.86V330.344ZM2021.99 330.344H2010.05V330.091H2021.99V330.344ZM1998.11 330.344H1986.18V330.091H1998.11V330.344ZM1974.24 330.344H1962.31V330.091H1974.24V330.344ZM1950.37 330.344H1938.47V330.091H1950.41L1950.37 330.344ZM1926.5 330.344H1914.56V330.091H1926.5V330.344ZM1902.62 330.344H1890.68V330.091H1902.62V330.344ZM1878.74 330.344H1866.81V330.091H1878.76L1878.74 330.344ZM1854.87 330.344H1842.93V330.091H1854.87V330.344ZM1831 330.344H1819.06V330.091H1831V330.344ZM1807.12 330.344H1795.19V330.091H1807.12V330.344Z" fill="#F2F2F2"/>
<path opacity="0.2" d="M2326.48 330.091H2320.41V330.344H2326.48V330.091Z" fill="#F2F2F2"/>
</g>
<path opacity="0.3" d="M1777.18 281.427H1755.77V287.924H1777.18V281.427Z" fill="#266AFB"/>
<path opacity="0.3" d="M2348.26 281.619H2326.86V288.116H2348.26V281.619Z" fill="#266AFB"/>
<g opacity="0.2">
<path opacity="0.2" d="M1783.25 284.554H1777.18V284.807H1783.25V284.554Z" fill="#F2F2F2"/>
<path opacity="0.2" d="M2308.47 284.807H2296.54V284.554H2308.47V284.807ZM2284.6 284.807H2272.67V284.554H2284.6V284.807ZM2260.73 284.807H2248.79V284.554H2260.73V284.807ZM2236.86 284.807H2224.91V284.554H2236.86V284.807ZM2212.98 284.807H2201.04V284.554H2212.98V284.807ZM2189.1 284.807H2177.17V284.554H2189.1V284.807ZM2165.23 284.807H2153.29V284.554H2165.23V284.807ZM2141.36 284.807H2129.42V284.554H2141.36V284.807ZM2117.49 284.807H2105.55V284.554H2117.49V284.807ZM2093.61 284.807H2081.68V284.554H2093.61V284.807ZM2069.74 284.807H2057.79V284.554H2069.74V284.807ZM2045.86 284.807H2033.92V284.554H2045.86V284.807ZM2021.99 284.807H2010.05V284.554H2021.99V284.807ZM1998.11 284.807H1986.18V284.554H1998.11V284.807ZM1974.24 284.807H1962.31V284.554H1974.24V284.807ZM1950.37 284.807H1938.47V284.554H1950.41L1950.37 284.807ZM1926.5 284.807H1914.56V284.554H1926.5V284.807ZM1902.62 284.807H1890.68V284.554H1902.62V284.807ZM1878.74 284.807H1866.81V284.554H1878.76L1878.74 284.807ZM1854.87 284.807H1842.93V284.554H1854.87V284.807ZM1831 284.807H1819.06V284.554H1831V284.807ZM1807.12 284.807H1795.19V284.554H1807.12V284.807Z" fill="#F2F2F2"/>
<path opacity="0.2" d="M2326.48 284.554H2320.41V284.807H2326.48V284.554Z" fill="#F2F2F2"/>
</g>
<path opacity="0.3" d="M2348.26 372.632H2326.86V379.129H2348.26V372.632Z" fill="#266AFB"/>
<g opacity="0.2">
<path opacity="0.2" d="M1783.25 375.567H1777.18V375.82H1783.25V375.567Z" fill="#F2F2F2"/>
<path opacity="0.2" d="M2308.47 375.81H2296.54V375.557H2308.47V375.81ZM2284.6 375.81H2272.67V375.557H2284.6V375.81ZM2260.73 375.81H2248.79V375.557H2260.73V375.81ZM2236.86 375.81H2224.91V375.557H2236.86V375.81ZM2212.98 375.81H2201.04V375.557H2212.98V375.81ZM2189.1 375.81H2177.17V375.557H2189.1V375.81ZM2165.23 375.81H2153.29V375.557H2165.23V375.81ZM2141.36 375.81H2129.42V375.557H2141.36V375.81ZM2117.49 375.81H2105.55V375.557H2117.49V375.81ZM2093.61 375.81H2081.68V375.557H2093.61V375.81ZM2069.74 375.81H2057.79V375.557H2069.74V375.81ZM2045.86 375.81H2033.92V375.557H2045.86V375.81ZM2021.99 375.81H2010.05V375.557H2021.99V375.81ZM1998.11 375.81H1986.18V375.557H1998.11V375.81ZM1974.24 375.81H1962.31V375.557H1974.24V375.81ZM1950.37 375.81H1938.47V375.557H1950.41L1950.37 375.81ZM1926.5 375.81H1914.56V375.557H1926.5V375.81ZM1902.62 375.81H1890.68V375.557H1902.62V375.81ZM1878.74 375.81H1866.81V375.557H1878.76L1878.74 375.81ZM1854.87 375.81H1842.93V375.557H1854.87V375.81ZM1831 375.81H1819.06V375.557H1831V375.81ZM1807.12 375.81H1795.19V375.557H1807.12V375.81Z" fill="#F2F2F2"/>
<path opacity="0.2" d="M2326.48 375.567H2320.41V375.82H2326.48V375.567Z" fill="#F2F2F2"/>
<path opacity="0.2" d="M1783.25 375.567H1777.18V375.82H1783.25V375.567Z" fill="#F2F2F2"/>
<path opacity="0.2" d="M2308.47 375.81H2296.54V375.557H2308.47V375.81ZM2284.6 375.81H2272.67V375.557H2284.6V375.81ZM2260.73 375.81H2248.79V375.557H2260.73V375.81ZM2236.86 375.81H2224.91V375.557H2236.86V375.81ZM2212.98 375.81H2201.04V375.557H2212.98V375.81ZM2189.1 375.81H2177.17V375.557H2189.1V375.81ZM2165.23 375.81H2153.29V375.557H2165.23V375.81ZM2141.36 375.81H2129.42V375.557H2141.36V375.81ZM2117.49 375.81H2105.55V375.557H2117.49V375.81ZM2093.61 375.81H2081.68V375.557H2093.61V375.81ZM2069.74 375.81H2057.79V375.557H2069.74V375.81ZM2045.86 375.81H2033.92V375.557H2045.86V375.81ZM2021.99 375.81H2010.05V375.557H2021.99V375.81ZM1998.11 375.81H1986.18V375.557H1998.11V375.81ZM1974.24 375.81H1962.31V375.557H1974.24V375.81ZM1950.37 375.81H1938.47V375.557H1950.41L1950.37 375.81ZM1926.5 375.81H1914.56V375.557H1926.5V375.81ZM1902.62 375.81H1890.68V375.557H1902.62V375.81ZM1878.74 375.81H1866.81V375.557H1878.76L1878.74 375.81ZM1854.87 375.81H1842.93V375.557H1854.87V375.81ZM1831 375.81H1819.06V375.557H1831V375.81ZM1807.12 375.81H1795.19V375.557H1807.12V375.81Z" fill="#F2F2F2"/>
<path opacity="0.2" d="M2326.48 375.567H2320.41V375.82H2326.48V375.567Z" fill="#F2F2F2"/>
</g>
<path opacity="0.3" d="M2348.26 418.108H2326.86V424.605H2348.26V418.108Z" fill="#266AFB"/>
<g opacity="0.2">
<path opacity="0.2" d="M1783.25 421.033H1777.18V421.286H1783.25V421.033Z" fill="#F2F2F2"/>
<path opacity="0.2" d="M2308.47 421.286H2296.54V421.033H2308.47V421.286ZM2284.6 421.286H2272.67V421.033H2284.6V421.286ZM2260.73 421.286H2248.79V421.033H2260.73V421.286ZM2236.86 421.286H2224.91V421.033H2236.86V421.286ZM2212.98 421.286H2201.04V421.033H2212.98V421.286ZM2189.1 421.286H2177.17V421.033H2189.1V421.286ZM2165.23 421.286H2153.29V421.033H2165.23V421.286ZM2141.36 421.286H2129.42V421.033H2141.36V421.286ZM2117.49 421.286H2105.55V421.033H2117.49V421.286ZM2093.61 421.286H2081.68V421.033H2093.61V421.286ZM2069.74 421.286H2057.79V421.033H2069.74V421.286ZM2045.86 421.286H2033.92V421.033H2045.86V421.286ZM2021.99 421.286H2010.05V421.033H2021.99V421.286ZM1998.11 421.286H1986.18V421.033H1998.11V421.286ZM1974.24 421.286H1962.31V421.033H1974.24V421.286ZM1950.37 421.286H1938.47V421.033H1950.41L1950.37 421.286ZM1926.5 421.286H1914.56V421.033H1926.5V421.286ZM1902.62 421.286H1890.68V421.033H1902.62V421.286ZM1878.74 421.286H1866.81V421.033H1878.76L1878.74 421.286ZM1854.87 421.286H1842.93V421.033H1854.87V421.286ZM1831 421.286H1819.06V421.033H1831V421.286ZM1807.12 421.286H1795.19V421.033H1807.12V421.286Z" fill="#F2F2F2"/>
<path opacity="0.2" d="M2326.48 421.033H2320.41V421.286H2326.48V421.033Z" fill="#F2F2F2"/>
<path opacity="0.2" d="M1783.25 421.033H1777.18V421.286H1783.25V421.033Z" fill="#F2F2F2"/>
<path opacity="0.2" d="M2308.47 421.286H2296.54V421.033H2308.47V421.286ZM2284.6 421.286H2272.67V421.033H2284.6V421.286ZM2260.73 421.286H2248.79V421.033H2260.73V421.286ZM2236.86 421.286H2224.91V421.033H2236.86V421.286ZM2212.98 421.286H2201.04V421.033H2212.98V421.286ZM2189.1 421.286H2177.17V421.033H2189.1V421.286ZM2165.23 421.286H2153.29V421.033H2165.23V421.286ZM2141.36 421.286H2129.42V421.033H2141.36V421.286ZM2117.49 421.286H2105.55V421.033H2117.49V421.286ZM2093.61 421.286H2081.68V421.033H2093.61V421.286ZM2069.74 421.286H2057.79V421.033H2069.74V421.286ZM2045.86 421.286H2033.92V421.033H2045.86V421.286ZM2021.99 421.286H2010.05V421.033H2021.99V421.286ZM1998.11 421.286H1986.18V421.033H1998.11V421.286ZM1974.24 421.286H1962.31V421.033H1974.24V421.286ZM1950.37 421.286H1938.47V421.033H1950.41L1950.37 421.286ZM1926.5 421.286H1914.56V421.033H1926.5V421.286ZM1902.62 421.286H1890.68V421.033H1902.62V421.286ZM1878.74 421.286H1866.81V421.033H1878.76L1878.74 421.286ZM1854.87 421.286H1842.93V421.033H1854.87V421.286ZM1831 421.286H1819.06V421.033H1831V421.286ZM1807.12 421.286H1795.19V421.033H1807.12V421.286Z" fill="#F2F2F2"/>
<path opacity="0.2" d="M2326.48 421.033H2320.41V421.286H2326.48V421.033Z" fill="#F2F2F2"/>
</g>
<path opacity="0.3" d="M2348.26 463.574H2326.86V470.071H2348.26V463.574Z" fill="#266AFB"/>
<g opacity="0.2">
<path opacity="0.2" d="M1783.25 466.509H1777.18V466.762H1783.25V466.509Z" fill="#F2F2F2"/>
<path opacity="0.2" d="M2308.47 466.762H2296.54V466.509H2308.47V466.762ZM2284.6 466.762H2272.67V466.509H2284.6V466.762ZM2260.73 466.762H2248.79V466.509H2260.73V466.762ZM2236.86 466.762H2224.91V466.509H2236.86V466.762ZM2212.98 466.762H2201.04V466.509H2212.98V466.762ZM2189.1 466.762H2177.17V466.509H2189.1V466.762ZM2165.23 466.762H2153.29V466.509H2165.23V466.762ZM2141.36 466.762H2129.42V466.509H2141.36V466.762ZM2117.49 466.762H2105.55V466.509H2117.49V466.762ZM2093.61 466.762H2081.68V466.509H2093.61V466.762ZM2069.74 466.762H2057.79V466.509H2069.74V466.762ZM2045.86 466.762H2033.92V466.509H2045.86V466.762ZM2021.99 466.762H2010.05V466.509H2021.99V466.762ZM1998.11 466.762H1986.18V466.509H1998.11V466.762ZM1974.24 466.762H1962.31V466.509H1974.24V466.762ZM1950.37 466.762H1938.47V466.509H1950.41L1950.37 466.762ZM1926.5 466.762H1914.56V466.509H1926.5V466.762ZM1902.62 466.762H1890.68V466.509H1902.62V466.762ZM1878.74 466.762H1866.81V466.509H1878.76L1878.74 466.762ZM1854.87 466.762H1842.93V466.509H1854.87V466.762ZM1831 466.762H1819.06V466.509H1831V466.762ZM1807.12 466.762H1795.19V466.509H1807.12V466.762Z" fill="#F2F2F2"/>
<path opacity="0.2" d="M2326.48 466.509H2320.41V466.762H2326.48V466.509Z" fill="#F2F2F2"/>
<path opacity="0.2" d="M1783.25 466.509H1777.18V466.762H1783.25V466.509Z" fill="#F2F2F2"/>
<path opacity="0.2" d="M2308.47 466.762H2296.54V466.509H2308.47V466.762ZM2284.6 466.762H2272.67V466.509H2284.6V466.762ZM2260.73 466.762H2248.79V466.509H2260.73V466.762ZM2236.86 466.762H2224.91V466.509H2236.86V466.762ZM2212.98 466.762H2201.04V466.509H2212.98V466.762ZM2189.1 466.762H2177.17V466.509H2189.1V466.762ZM2165.23 466.762H2153.29V466.509H2165.23V466.762ZM2141.36 466.762H2129.42V466.509H2141.36V466.762ZM2117.49 466.762H2105.55V466.509H2117.49V466.762ZM2093.61 466.762H2081.68V466.509H2093.61V466.762ZM2069.74 466.762H2057.79V466.509H2069.74V466.762ZM2045.86 466.762H2033.92V466.509H2045.86V466.762ZM2021.99 466.762H2010.05V466.509H2021.99V466.762ZM1998.11 466.762H1986.18V466.509H1998.11V466.762ZM1974.24 466.762H1962.31V466.509H1974.24V466.762ZM1950.37 466.762H1938.47V466.509H1950.41L1950.37 466.762ZM1926.5 466.762H1914.56V466.509H1926.5V466.762ZM1902.62 466.762H1890.68V466.509H1902.62V466.762ZM1878.74 466.762H1866.81V466.509H1878.76L1878.74 466.762ZM1854.87 466.762H1842.93V466.509H1854.87V466.762ZM1831 466.762H1819.06V466.509H1831V466.762ZM1807.12 466.762H1795.19V466.509H1807.12V466.762Z" fill="#F2F2F2"/>
<path opacity="0.2" d="M2326.48 466.509H2320.41V466.762H2326.48V466.509Z" fill="#F2F2F2"/>
</g>
<path d="M1846.95 284.868V467.207" stroke="#F2F2F2" stroke-width="0.1" stroke-miterlimit="10"/>
<path d="M1920.82 284.868V467.207" stroke="#F2F2F2" stroke-width="0.1" stroke-miterlimit="10"/>
<path d="M1994.69 284.868V467.207" stroke="#F2F2F2" stroke-width="0.1" stroke-miterlimit="10"/>
<path d="M2068.56 284.868V467.207" stroke="#F2F2F2" stroke-width="0.1" stroke-miterlimit="10"/>
<path d="M2142.43 284.868V467.207" stroke="#F2F2F2" stroke-width="0.1" stroke-miterlimit="10"/>
<path d="M2216.3 284.868V467.207" stroke="#F2F2F2" stroke-width="0.1" stroke-miterlimit="10"/>
<path d="M2290.17 284.868V467.207" stroke="#F2F2F2" stroke-width="0.1" stroke-miterlimit="10"/>
<path opacity="0.3" d="M2306.15 272.563L2297.7 281.366C2297.53 281.55 2297.39 281.758 2297.28 281.984L2292.04 292.781C2291.83 293.215 2291.49 293.575 2291.07 293.815C2290.66 294.056 2290.18 294.164 2289.7 294.127L2288.02 293.995C2287.53 293.961 2287.07 293.777 2286.69 293.469C2286.31 293.162 2286.03 292.745 2285.89 292.275L2284.27 286.669C2284.13 286.179 2283.84 285.746 2283.43 285.434C2283.03 285.123 2282.54 284.948 2282.03 284.935C2281.52 284.923 2281.02 285.074 2280.6 285.365C2280.18 285.657 2279.87 286.075 2279.7 286.558L2276.98 294.532C2276.82 295.007 2276.51 295.421 2276.1 295.713C2275.69 296.005 2275.2 296.162 2274.7 296.161H2264.31C2263.74 296.159 2263.19 295.954 2262.75 295.583C2262.32 295.213 2262.03 294.7 2261.94 294.137L2259.01 275.77C2258.93 275.268 2258.69 274.804 2258.33 274.444C2257.97 274.084 2257.51 273.848 2257.01 273.769C2256.51 273.69 2255.99 273.773 2255.54 274.005C2255.09 274.238 2254.72 274.608 2254.49 275.062L2239.45 304.762C2239.29 305.07 2239.07 305.34 2238.8 305.555C2238.53 305.77 2238.22 305.925 2237.89 306.008C2237.55 306.092 2237.2 306.102 2236.87 306.039C2236.53 305.976 2236.21 305.841 2235.92 305.643L2226.98 299.328C2226.49 298.985 2225.89 298.835 2225.3 298.906C2224.71 298.977 2224.16 299.264 2223.77 299.713L2220.38 303.629C2220.28 303.744 2220.19 303.87 2220.12 304.003L2211.07 319.658C2210.84 320.059 2210.5 320.385 2210.09 320.595C2209.68 320.805 2209.21 320.891 2208.75 320.842L2203.24 320.295C2202.85 320.258 2202.46 320.313 2202.11 320.457L2197.17 322.43C2196.6 322.646 2195.96 322.635 2195.4 322.4C2194.83 322.165 2194.38 321.723 2194.13 321.165L2193.05 318.686C2192.85 318.242 2192.53 317.868 2192.12 317.611C2191.71 317.355 2191.23 317.229 2190.74 317.249L2185.1 317.512C2184.75 317.527 2184.4 317.619 2184.09 317.782C2183.78 317.945 2183.51 318.174 2183.3 318.454L2181.71 320.538C2181.44 320.882 2181.09 321.148 2180.69 321.308C2180.29 321.469 2179.85 321.517 2179.42 321.449C2178.99 321.38 2178.59 321.197 2178.26 320.919C2177.93 320.642 2177.68 320.279 2177.54 319.87L2175.51 314.153C2175.39 313.797 2175.18 313.476 2174.91 313.215C2174.64 312.954 2174.31 312.761 2173.95 312.652C2173.58 312.542 2173.2 312.52 2172.83 312.585C2172.46 312.651 2172.11 312.803 2171.81 313.03L2162.2 320.235L2151.57 328.806C2151.21 329.097 2150.77 329.277 2150.3 329.324C2149.84 329.371 2149.37 329.282 2148.96 329.069L2140.71 324.788C2140.27 324.561 2139.77 324.477 2139.27 324.545L2122.57 326.883C2122.08 326.948 2121.63 327.159 2121.27 327.488C2120.91 327.817 2120.65 328.249 2120.54 328.725L2117.58 341.606C2117.49 342.008 2117.29 342.38 2117.01 342.684C2116.74 342.989 2116.38 343.217 2115.99 343.346C2115.6 343.476 2115.18 343.502 2114.78 343.422C2114.37 343.342 2114 343.16 2113.68 342.892C2113.41 342.655 2113.08 342.484 2112.72 342.393C2112.37 342.301 2112 342.291 2111.64 342.363C2111.29 342.435 2110.95 342.588 2110.66 342.809C2110.37 343.03 2110.13 343.315 2109.97 343.64L2107.69 348.204C2107.52 348.541 2107.27 348.834 2106.97 349.059C2106.67 349.284 2106.31 349.435 2105.94 349.499L2100.77 350.36C2100.44 350.418 2100.12 350.545 2099.84 350.734L2091.69 356.158C2091.3 356.422 2090.84 356.562 2090.37 356.563H2086.55C2086.08 356.564 2085.63 356.427 2085.23 356.17C2084.84 355.913 2084.53 355.546 2084.35 355.116L2083.34 352.697C2083.21 352.404 2083.02 352.14 2082.79 351.92C2082.56 351.7 2082.28 351.528 2081.98 351.416C2081.68 351.304 2081.36 351.253 2081.04 351.266C2080.72 351.279 2080.41 351.356 2080.12 351.493L2071.27 355.632C2070.92 355.799 2070.52 355.877 2070.13 355.857C2069.74 355.838 2069.36 355.722 2069.02 355.52L2064.97 353.082C2064.6 352.858 2064.17 352.739 2063.73 352.738H2054.8C2054.33 352.739 2053.87 352.88 2053.47 353.142L2044.56 359.062C2044.22 359.29 2043.82 359.426 2043.41 359.456C2043 359.486 2042.58 359.41 2042.21 359.234L2038.16 357.322C2037.69 357.101 2037.16 357.04 2036.65 357.148C2036.14 357.256 2035.68 357.526 2035.34 357.919L2033.42 360.115C2033.17 360.406 2032.85 360.631 2032.49 360.773C2032.13 360.915 2031.75 360.968 2031.36 360.928C2030.98 360.888 2030.61 360.757 2030.29 360.545C2029.97 360.333 2029.71 360.046 2029.52 359.71L2028.94 358.698C2028.79 358.418 2028.58 358.173 2028.32 357.976C2028.07 357.779 2027.78 357.635 2027.47 357.552C2027.16 357.469 2026.84 357.449 2026.52 357.493C2026.21 357.537 2025.9 357.644 2025.63 357.807L2018.61 361.966C2018.25 362.175 2017.84 362.285 2017.42 362.285C2017 362.285 2016.59 362.175 2016.22 361.966L2013.33 360.357C2013 360.173 2012.64 360.069 2012.26 360.053C2011.89 360.038 2011.52 360.111 2011.18 360.266L2008.42 361.521C2008.11 361.66 2007.78 361.732 2007.44 361.733C2007.1 361.734 2006.76 361.663 2006.45 361.525C2006.14 361.388 2005.87 361.187 2005.64 360.935C2005.41 360.683 2005.24 360.387 2005.13 360.064L2003.35 354.761C2003.2 354.275 2002.9 353.85 2002.49 353.549C2002.07 353.249 2001.58 353.088 2001.07 353.092H1998.48C1998.07 353.093 1997.67 352.989 1997.31 352.788L1987.36 347.334C1986.96 347.115 1986.5 347.017 1986.04 347.051C1985.58 347.085 1985.14 347.25 1984.77 347.526L1977.48 352.991C1977.06 353.301 1976.56 353.468 1976.04 353.466H1966.86C1966.39 353.467 1965.93 353.607 1965.54 353.871L1963.82 355.014C1963.53 355.204 1963.21 355.331 1962.88 355.388C1962.54 355.444 1962.2 355.428 1961.87 355.341C1961.54 355.254 1961.23 355.097 1960.97 354.882C1960.7 354.667 1960.49 354.398 1960.34 354.094L1959.92 353.274C1959.72 352.873 1959.42 352.535 1959.04 352.299C1958.66 352.063 1958.22 351.938 1957.78 351.938H1953.17C1952.81 351.939 1952.45 352.023 1952.12 352.185C1951.79 352.346 1951.5 352.58 1951.28 352.869L1948.43 356.522C1948.19 356.825 1947.88 357.067 1947.53 357.227C1947.18 357.387 1946.8 357.461 1946.42 357.442C1946.03 357.423 1945.66 357.312 1945.33 357.119C1945 356.925 1944.72 356.655 1944.51 356.33L1943.7 355.065C1943.37 354.535 1942.84 354.158 1942.23 354.014C1941.62 353.87 1940.98 353.971 1940.44 354.296L1938.07 355.713C1937.67 355.954 1937.21 356.072 1936.74 356.052C1936.27 356.032 1935.81 355.875 1935.43 355.601L1925.89 348.69C1925.72 348.569 1925.54 348.468 1925.34 348.386L1917.89 345.523C1917.3 345.311 1916.67 345.332 1916.1 345.581C1915.53 345.83 1915.09 346.287 1914.85 346.858L1909.66 359.507C1909.58 359.685 1909.53 359.873 1909.51 360.064L1907.83 371.458C1907.75 371.94 1907.53 372.388 1907.2 372.743L1903.65 376.558C1903.28 376.947 1902.79 377.203 1902.26 377.286C1901.73 377.368 1901.19 377.272 1900.72 377.014L1894.56 373.593C1894.25 373.422 1893.91 373.32 1893.56 373.294C1893.21 373.269 1892.86 373.32 1892.53 373.446C1892.2 373.571 1891.91 373.768 1891.66 374.02C1891.42 374.273 1891.23 374.577 1891.12 374.909L1887.21 386.334C1887.13 386.584 1887.08 386.847 1887.08 387.113V394.318C1887.08 394.785 1886.94 395.242 1886.69 395.632C1886.43 396.022 1886.06 396.328 1885.64 396.514L1879.37 399.286C1879.02 399.436 1878.64 399.502 1878.27 399.477C1877.89 399.452 1877.52 399.338 1877.2 399.145L1872.48 396.372C1872.01 396.097 1871.46 395.99 1870.92 396.068L1862.65 397.252C1862.18 397.32 1861.7 397.244 1861.27 397.035C1860.84 396.826 1860.48 396.493 1860.25 396.078L1858.85 393.69C1858.55 393.175 1858.06 392.792 1857.49 392.618L1853.74 391.444C1853.3 391.305 1852.83 391.294 1852.39 391.415C1851.95 391.535 1851.55 391.78 1851.24 392.122L1846.03 397.91C1845.62 398.364 1845.05 398.646 1844.44 398.699L1836.75 399.347C1836.39 399.367 1836.05 399.471 1835.74 399.651L1822.33 407.361C1821.91 407.599 1821.43 407.706 1820.95 407.668C1820.47 407.63 1820.01 407.449 1819.64 407.149L1815.83 404.113C1815.41 403.775 1814.88 403.59 1814.34 403.587H1799.93C1799.57 403.588 1799.21 403.508 1798.89 403.352C1798.56 403.196 1798.28 402.968 1798.05 402.686L1794.42 398.153C1794.2 397.882 1793.93 397.662 1793.62 397.507C1793.31 397.352 1792.96 397.267 1792.62 397.258C1792.27 397.248 1791.92 397.314 1791.6 397.451C1791.29 397.588 1791 397.793 1790.77 398.052L1786.4 402.909C1786 403.348 1785.78 403.917 1785.78 404.508V464.859C1785.78 465.495 1786.03 466.105 1786.48 466.555C1786.93 467.005 1787.54 467.257 1788.18 467.257H2308.03C2308.35 467.257 2308.66 467.195 2308.95 467.074C2309.25 466.953 2309.51 466.775 2309.73 466.551C2309.96 466.328 2310.13 466.062 2310.25 465.77C2310.37 465.478 2310.43 465.165 2310.43 464.849L2310.29 274.273C2310.3 273.79 2310.16 273.317 2309.89 272.913C2309.63 272.51 2309.25 272.196 2308.8 272.012C2308.36 271.827 2307.86 271.781 2307.39 271.88C2306.92 271.978 2306.49 272.216 2306.15 272.563Z" fill="#266AFB"/>
<path opacity="0.3" d="M2305.69 350.714L2297.85 355.935C2297.58 356.121 2297.34 356.35 2297.14 356.613L2292.27 363.039C2291.97 363.42 2291.59 363.725 2291.16 363.929C2290.72 364.133 2290.24 364.23 2289.76 364.213L2288.17 364.132C2287.62 364.105 2287.1 363.928 2286.65 363.621C2286.19 363.314 2285.84 362.889 2285.61 362.391L2284.6 360.236C2284.37 359.73 2284.01 359.297 2283.55 358.988C2283.09 358.679 2282.55 358.505 2282 358.487C2281.44 358.47 2280.89 358.608 2280.41 358.887C2279.93 359.165 2279.54 359.573 2279.29 360.064L2277.26 363.94C2277.01 364.415 2276.63 364.812 2276.17 365.089C2275.71 365.365 2275.18 365.51 2274.64 365.508H2264.6C2263.94 365.511 2263.3 365.291 2262.78 364.884C2262.25 364.476 2261.89 363.905 2261.73 363.262L2259.32 353.618C2259.19 353.081 2258.9 352.591 2258.51 352.206C2258.11 351.82 2257.61 351.554 2257.07 351.437C2256.53 351.32 2255.96 351.357 2255.44 351.544C2254.92 351.731 2254.46 352.061 2254.12 352.495L2239.65 370.79C2239.24 371.311 2238.67 371.678 2238.03 371.834C2237.38 371.99 2236.71 371.926 2236.11 371.651L2226.81 367.451C2226.32 367.223 2225.78 367.132 2225.25 367.187C2224.71 367.243 2224.2 367.442 2223.77 367.765L2220.44 370.224C2220.28 370.343 2220.14 370.478 2220.01 370.629L2211.22 380.353C2210.93 380.692 2210.56 380.959 2210.15 381.134C2209.73 381.309 2209.28 381.388 2208.83 381.365L2203.1 381.001C2202.78 380.982 2202.47 381.009 2202.17 381.082L2197 382.407C2196.41 382.561 2195.78 382.529 2195.21 382.315C2194.64 382.102 2194.15 381.717 2193.81 381.213L2193.22 380.343C2192.94 379.934 2192.56 379.603 2192.12 379.378C2191.68 379.154 2191.19 379.044 2190.69 379.058L2184.92 379.23C2184.26 379.241 2183.62 379.484 2183.11 379.918L2181.69 381.102C2181.36 381.384 2180.97 381.587 2180.54 381.699C2180.12 381.81 2179.68 381.826 2179.25 381.746C2178.81 381.665 2178.41 381.491 2178.05 381.234C2177.7 380.978 2177.4 380.646 2177.19 380.262L2175.69 377.55C2175.33 376.887 2174.72 376.389 2174 376.158C2173.28 375.926 2172.5 375.979 2171.82 376.305L2162.11 380.97L2151.38 386.516C2151.03 386.696 2150.64 386.804 2150.25 386.834C2149.86 386.863 2149.46 386.814 2149.09 386.688L2140.54 383.854C2140.16 383.728 2139.75 383.68 2139.35 383.713L2122.79 385.119C2122.23 385.177 2121.69 385.391 2121.25 385.736C2120.8 386.081 2120.46 386.544 2120.26 387.072L2117.86 393.771C2117.72 394.174 2117.49 394.54 2117.19 394.845C2116.89 395.151 2116.53 395.387 2116.13 395.539C2115.73 395.691 2115.3 395.754 2114.87 395.725C2114.44 395.696 2114.03 395.575 2113.65 395.37L2113.55 395.32C2112.94 394.979 2112.22 394.869 2111.53 395.01C2110.84 395.151 2110.23 395.534 2109.8 396.089L2107.92 398.497C2107.42 399.124 2106.69 399.528 2105.89 399.62L2100.71 400.177C2100.42 400.206 2100.13 400.278 2099.86 400.389L2091.65 403.901C2091.28 404.053 2090.89 404.132 2090.49 404.133H2086.54C2086.06 404.133 2085.59 404.015 2085.16 403.789C2084.73 403.564 2084.37 403.237 2084.09 402.838L2083.53 402.008C2083.17 401.49 2082.66 401.097 2082.07 400.888C2081.48 400.679 2080.83 400.664 2080.23 400.845L2071.03 403.627C2070.4 403.817 2069.72 403.793 2069.11 403.557L2064.84 401.917C2064.52 401.79 2064.17 401.722 2063.83 401.715H2054.66C2054.26 401.714 2053.87 401.797 2053.5 401.958L2044.4 405.823C2043.76 406.1 2043.04 406.139 2042.37 405.935L2037.87 404.589C2037.43 404.458 2036.97 404.43 2036.52 404.507C2036.07 404.585 2035.64 404.765 2035.27 405.034L2033.3 406.481C2032.7 406.918 2031.96 407.116 2031.22 407.035C2030.49 406.955 2029.81 406.602 2029.32 406.046L2029.03 405.712C2028.63 405.258 2028.1 404.936 2027.51 404.789C2026.93 404.643 2026.31 404.679 2025.75 404.892L2018.41 407.695C2017.76 407.934 2017.04 407.934 2016.39 407.695L2013.17 406.542C2012.58 406.339 2011.95 406.321 2011.35 406.491L2008.31 407.372C2007.65 407.563 2006.94 407.516 2006.3 407.239C2005.67 406.962 2005.15 406.472 2004.84 405.854L2003.71 403.577C2003.46 403.085 2003.08 402.672 2002.61 402.382C2002.15 402.093 2001.61 401.939 2001.06 401.938H1998.42C1998.08 401.943 1997.74 401.889 1997.41 401.776L1987.2 398.193C1986.84 398.062 1986.45 398.005 1986.06 398.026C1985.67 398.047 1985.29 398.145 1984.94 398.315L1977.48 401.897C1977.08 402.088 1976.64 402.188 1976.19 402.191H1966.77C1966.37 402.192 1965.98 402.271 1965.61 402.423L1963.69 403.253C1963.08 403.508 1962.42 403.558 1961.78 403.396C1961.15 403.233 1960.59 402.866 1960.18 402.352C1959.91 401.996 1959.55 401.708 1959.15 401.51C1958.74 401.311 1958.3 401.209 1957.85 401.209H1953.09C1952.4 401.208 1951.74 401.444 1951.21 401.877L1948.45 404.144C1947.88 404.614 1947.15 404.854 1946.42 404.816C1945.68 404.779 1944.99 404.467 1944.47 403.941L1943.84 403.314C1943.44 402.906 1942.92 402.624 1942.36 402.504C1941.8 402.384 1941.21 402.429 1940.67 402.636L1937.92 403.698C1937.17 403.979 1936.34 403.95 1935.6 403.617L1925.92 399.124C1925.75 399.043 1925.57 398.982 1925.38 398.942L1917.78 397.07C1917.18 396.92 1916.55 396.963 1915.98 397.192C1915.41 397.421 1914.92 397.824 1914.59 398.345L1909.81 405.793C1909.63 406.079 1909.49 406.394 1909.42 406.724L1907.97 413.049C1907.8 413.771 1907.36 414.404 1906.75 414.829L1903.6 416.995C1903.21 417.26 1902.77 417.429 1902.31 417.489C1901.85 417.549 1901.37 417.497 1900.94 417.339L1894.44 415.032C1893.76 414.792 1893.02 414.808 1892.35 415.076C1891.68 415.344 1891.13 415.846 1890.81 416.489L1887.39 422.884C1887.16 423.316 1887.04 423.795 1887.04 424.281V427.165C1887.04 427.813 1886.83 428.442 1886.43 428.957C1886.04 429.472 1885.49 429.845 1884.87 430.019L1879.18 431.597C1878.58 431.768 1877.93 431.74 1877.35 431.516L1872.39 429.644C1871.97 429.483 1871.52 429.421 1871.07 429.462L1862.52 430.241C1862.07 430.285 1861.61 430.222 1861.18 430.057C1860.75 429.892 1860.37 429.629 1860.06 429.29L1859.05 428.167C1858.63 427.694 1858.07 427.374 1857.44 427.256L1853.55 426.467C1853.15 426.391 1852.74 426.396 1852.34 426.481C1851.95 426.566 1851.57 426.73 1851.24 426.963L1846.11 430.616C1845.65 430.938 1845.11 431.127 1844.55 431.162L1836.69 431.577C1836.39 431.595 1836.1 431.657 1835.82 431.759L1822.17 436.819C1821.79 436.964 1821.38 437.026 1820.97 437.002C1820.56 436.977 1820.16 436.867 1819.8 436.677L1815.85 434.653C1815.44 434.441 1814.97 434.33 1814.51 434.329H1799.83C1799.16 434.329 1798.5 434.097 1797.97 433.672L1794.42 430.828C1793.92 430.425 1793.3 430.197 1792.65 430.179C1792.01 430.161 1791.37 430.353 1790.85 430.727L1787.04 433.439C1786.66 433.714 1786.34 434.077 1786.13 434.498C1785.91 434.918 1785.8 435.384 1785.8 435.857V464.303C1785.8 465.089 1786.11 465.843 1786.67 466.399C1787.22 466.955 1787.98 467.268 1788.76 467.268H2307.47C2308.25 467.268 2309.01 466.955 2309.56 466.399C2310.12 465.843 2310.43 465.089 2310.43 464.303L2310.29 353.223C2310.3 352.684 2310.16 352.153 2309.89 351.687C2309.61 351.222 2309.22 350.839 2308.74 350.581C2308.27 350.323 2307.74 350.199 2307.2 350.222C2306.66 350.245 2306.14 350.416 2305.69 350.714Z" fill="#266AFB"/>
<path d="M2307.78 357.048C2311.69 357.048 2314.86 353.877 2314.86 349.965C2314.86 346.053 2311.69 342.881 2307.78 342.881C2303.87 342.881 2300.7 346.053 2300.7 349.965C2300.7 353.877 2303.87 357.048 2307.78 357.048Z" fill="#266AFB"/>
<path opacity="0.3" d="M2307.33 420.041L2297.7 423.249C2297.52 423.312 2297.34 423.397 2297.18 423.502L2291.89 426.993C2291.51 427.244 2291.06 427.371 2290.6 427.357L2287.31 427.276C2287 427.27 2286.7 427.201 2286.42 427.074C2286.15 426.947 2285.9 426.764 2285.69 426.537L2283.67 424.311C2283.47 424.089 2283.22 423.909 2282.95 423.782C2282.68 423.654 2282.39 423.583 2282.09 423.57C2281.79 423.558 2281.49 423.606 2281.21 423.71C2280.92 423.815 2280.67 423.974 2280.45 424.18L2277.04 427.377C2276.62 427.773 2276.07 427.995 2275.5 427.995H2263.68C2263.26 427.997 2262.85 427.881 2262.49 427.659C2262.13 427.437 2261.84 427.118 2261.66 426.74L2258.96 421.346C2258.81 421.065 2258.62 420.816 2258.37 420.616C2258.13 420.416 2257.85 420.268 2257.55 420.184C2257.24 420.099 2256.93 420.078 2256.61 420.123C2256.3 420.169 2256 420.278 2255.74 420.446L2239.01 431.041C2238.5 431.358 2237.89 431.463 2237.31 431.334L2225.86 428.754C2225.43 428.654 2224.99 428.682 2224.58 428.835L2220.4 430.383C2220.29 430.417 2220.19 430.465 2220.09 430.524L2210.85 435.645C2210.49 435.839 2210.09 435.937 2209.68 435.928L2202.84 435.706C2202.73 435.695 2202.61 435.695 2202.49 435.706L2195.91 436.545C2195.34 436.615 2194.76 436.467 2194.29 436.131L2192.96 435.119C2192.56 434.827 2192.08 434.674 2191.59 434.683L2184.38 434.785C2184.09 434.785 2183.8 434.843 2183.54 434.957L2180.3 436.323C2179.9 436.487 2179.47 436.535 2179.04 436.461C2178.62 436.388 2178.23 436.196 2177.91 435.908L2175.26 433.56C2174.99 433.317 2174.66 433.143 2174.31 433.053C2173.96 432.963 2173.59 432.96 2173.24 433.044L2162.16 435.716L2150.78 438.66C2150.47 438.726 2150.16 438.726 2149.85 438.66L2140.24 437.061C2140.08 437.051 2139.93 437.051 2139.77 437.061L2121.99 437.861C2121.65 437.876 2121.32 437.969 2121.02 438.132C2120.72 438.295 2120.46 438.524 2120.26 438.802L2117.58 442.496C2117.31 442.871 2116.93 443.155 2116.5 443.308C2116.07 443.462 2115.59 443.479 2115.15 443.356L2112.29 442.566C2111.98 442.486 2111.66 442.47 2111.35 442.519C2111.04 442.567 2110.74 442.68 2110.48 442.85L2107.61 444.681C2107.28 444.886 2106.91 445.004 2106.52 445.025L2100.45 445.359C2100.33 445.35 2100.22 445.35 2100.1 445.359L2091.34 447.231C2091.18 447.263 2091.02 447.28 2090.86 447.282H2085.72C2085.25 447.282 2084.78 447.13 2084.4 446.847L2083.06 445.835C2082.83 445.659 2082.56 445.532 2082.27 445.461C2081.99 445.39 2081.69 445.376 2081.4 445.42L2070.46 447.059C2070.21 447.1 2069.96 447.1 2069.71 447.059L2064.56 446.047C2064.42 446.033 2064.28 446.033 2064.14 446.047H2054.27C2054.12 446.033 2053.96 446.033 2053.81 446.047L2043.8 448.172C2043.53 448.223 2043.26 448.223 2042.99 448.172L2037.03 447.272C2036.65 447.221 2036.27 447.262 2035.92 447.393L2032.09 448.79C2031.78 448.905 2031.45 448.95 2031.13 448.922C2030.8 448.894 2030.48 448.793 2030.2 448.628L2028.39 447.616C2027.93 447.344 2027.38 447.251 2026.86 447.353L2017.75 449.083C2017.48 449.134 2017.2 449.134 2016.93 449.083L2012.55 448.304C2012.31 448.269 2012.07 448.269 2011.83 448.304L2007 449.002C2006.65 449.055 2006.3 449.026 2005.96 448.917C2005.63 448.808 2005.33 448.622 2005.08 448.375L2003.48 446.847C2003.06 446.429 2002.48 446.193 2001.89 446.189H1998.05C1997.92 446.2 1997.79 446.2 1997.67 446.189L1986.47 444.226C1986.17 444.16 1985.86 444.16 1985.55 444.226L1977.09 446.25C1976.92 446.291 1976.74 446.311 1976.57 446.311H1966.38C1966.22 446.295 1966.07 446.295 1965.91 446.311L1962.46 447.049C1961.88 447.211 1961.26 447.138 1960.73 446.847L1959.78 446.23C1959.42 445.999 1959 445.876 1958.56 445.875H1952.4C1952.11 445.877 1951.82 445.935 1951.55 446.047L1947.24 447.808C1946.94 447.932 1946.62 447.99 1946.3 447.978C1945.98 447.966 1945.67 447.884 1945.38 447.737L1943.09 446.584C1942.65 446.361 1942.14 446.29 1941.66 446.381L1937.14 447.252C1936.84 447.317 1936.52 447.317 1936.21 447.252L1925.75 444.823H1925.52L1916.62 443.72C1916.03 443.653 1915.43 443.82 1914.96 444.185L1909.9 448.112C1909.62 448.331 1909.39 448.616 1909.24 448.942L1908.11 451.461C1907.98 451.738 1907.8 451.987 1907.57 452.192C1907.35 452.397 1907.08 452.555 1906.79 452.655L1902.91 453.981C1902.55 454.112 1902.16 454.143 1901.79 454.072L1893.14 452.534C1892.8 452.474 1892.45 452.495 1892.11 452.595C1891.77 452.696 1891.47 452.872 1891.21 453.111L1887.78 456.318C1887.56 456.53 1887.38 456.786 1887.25 457.069C1887.13 457.353 1887.07 457.659 1887.07 457.968C1887.07 458.511 1886.88 459.036 1886.52 459.445C1886.16 459.855 1885.67 460.121 1885.13 460.194L1878.64 461.095C1878.4 461.135 1878.16 461.135 1877.91 461.095L1872.05 459.982C1871.87 459.961 1871.69 459.961 1871.52 459.982L1861.71 460.427C1861.3 460.443 1860.89 460.348 1860.53 460.154L1858.81 459.213C1858.55 459.062 1858.25 458.968 1857.95 458.939L1852.8 458.423C1852.46 458.388 1852.11 458.429 1851.79 458.545L1845.71 460.7C1845.49 460.78 1845.25 460.824 1845.02 460.832L1836.38 461.064C1836.27 461.054 1836.15 461.054 1836.03 461.064L1821.41 463.766C1821.09 463.832 1820.76 463.832 1820.45 463.766L1815.47 462.491C1815.28 462.447 1815.09 462.423 1814.9 462.42H1799.21C1798.92 462.423 1798.63 462.368 1798.37 462.259L1793.45 460.295C1792.93 460.098 1792.36 460.098 1791.85 460.295L1787.28 461.925C1786.84 462.078 1786.46 462.364 1786.19 462.743C1785.92 463.122 1785.78 463.575 1785.78 464.04V465.051C1785.78 465.347 1785.83 465.641 1785.95 465.914C1786.06 466.188 1786.22 466.437 1786.43 466.646C1786.64 466.856 1786.89 467.023 1787.16 467.136C1787.44 467.25 1787.73 467.308 1788.02 467.308H2308.16C2308.45 467.308 2308.74 467.25 2309.02 467.136C2309.29 467.023 2309.54 466.856 2309.75 466.646C2309.96 466.437 2310.12 466.188 2310.23 465.914C2310.35 465.641 2310.4 465.347 2310.4 465.051L2310.27 422.277C2310.28 421.915 2310.21 421.554 2310.06 421.226C2309.9 420.898 2309.67 420.612 2309.38 420.392C2309.09 420.173 2308.75 420.026 2308.4 419.965C2308.04 419.904 2307.67 419.93 2307.33 420.041Z" fill="#266AFB"/>
<path d="M1918.19 404.609C1922.1 404.609 1925.27 401.438 1925.27 397.526C1925.27 393.613 1922.1 390.442 1918.19 390.442C1914.28 390.442 1911.11 393.613 1911.11 397.526C1911.11 401.438 1914.28 404.609 1918.19 404.609Z" fill="#266AFB"/>
<path d="M2258.2 360.084C2262.11 360.084 2265.28 356.913 2265.28 353.001C2265.28 349.089 2262.11 345.917 2258.2 345.917C2254.28 345.917 2251.11 349.089 2251.11 353.001C2251.11 356.913 2254.28 360.084 2258.2 360.084Z" fill="#266AFB"/>
<path d="M2082.12 407.645C2086.03 407.645 2089.2 404.473 2089.2 400.561C2089.2 396.649 2086.03 393.478 2082.12 393.478C2078.21 393.478 2075.04 396.649 2075.04 400.561C2075.04 404.473 2078.21 407.645 2082.12 407.645Z" fill="#266AFB"/>
<path d="M2174.21 382.347C2178.12 382.347 2181.29 379.175 2181.29 375.263C2181.29 371.351 2178.12 368.18 2174.21 368.18C2170.29 368.18 2167.12 371.351 2167.12 375.263C2167.12 379.175 2170.29 382.347 2174.21 382.347Z" fill="#266AFB"/>
<path d="M2311.3 353.163C2311.3 352.628 2311.15 352.103 2310.88 351.645C2310.6 351.186 2310.21 350.811 2309.73 350.559C2309.26 350.307 2308.73 350.187 2308.2 350.213C2307.66 350.238 2307.14 350.408 2306.7 350.704L2298.87 355.925C2298.59 356.11 2298.35 356.339 2298.15 356.603L2293.28 363.029C2292.98 363.41 2292.6 363.715 2292.17 363.919C2291.73 364.123 2291.25 364.22 2290.77 364.203L2289.18 364.122C2288.64 364.095 2288.11 363.918 2287.66 363.611C2287.21 363.304 2286.85 362.878 2286.62 362.381L2285.61 360.226C2285.38 359.72 2285.02 359.287 2284.56 358.978C2284.1 358.669 2283.56 358.495 2283.01 358.477C2282.45 358.459 2281.91 358.598 2281.43 358.876C2280.95 359.155 2280.56 359.563 2280.3 360.054L2278.27 363.93C2278.02 364.405 2277.64 364.802 2277.18 365.079C2276.72 365.355 2276.19 365.5 2275.65 365.498H2265.61C2264.95 365.501 2264.31 365.281 2263.79 364.873C2263.27 364.466 2262.9 363.894 2262.74 363.252L2260.33 353.608C2260.2 353.07 2259.92 352.581 2259.52 352.196C2259.12 351.81 2258.62 351.544 2258.08 351.427C2257.54 351.31 2256.98 351.347 2256.45 351.534C2255.93 351.721 2255.47 352.05 2255.13 352.485L2240.66 370.78C2240.25 371.3 2239.68 371.668 2239.04 371.824C2238.4 371.98 2237.72 371.915 2237.12 371.64L2227.82 367.441C2227.33 367.213 2226.79 367.122 2226.26 367.177C2225.72 367.232 2225.21 367.432 2224.78 367.755L2221.45 370.214C2221.29 370.332 2221.15 370.468 2221.02 370.618L2212.23 380.343C2211.94 380.682 2211.57 380.949 2211.16 381.124C2210.74 381.299 2210.3 381.378 2209.85 381.355L2204.11 380.991C2203.8 380.972 2203.48 380.999 2203.18 381.072L2198.01 382.397C2197.42 382.551 2196.79 382.519 2196.22 382.305C2195.65 382.092 2195.16 381.707 2194.82 381.203L2194.23 380.333C2193.95 379.924 2193.57 379.593 2193.13 379.368C2192.69 379.144 2192.2 379.033 2191.7 379.048L2185.93 379.22C2185.27 379.231 2184.63 379.474 2184.12 379.908L2182.71 381.092C2182.37 381.373 2181.98 381.577 2181.55 381.689C2181.13 381.8 2180.69 381.816 2180.26 381.736C2179.83 381.655 2179.42 381.481 2179.06 381.224C2178.71 380.968 2178.42 380.636 2178.2 380.252L2176.71 377.54C2176.34 376.877 2175.74 376.379 2175.02 376.147C2174.3 375.916 2173.51 375.969 2172.83 376.295L2163.13 380.96L2152.39 386.506C2152.04 386.686 2151.66 386.794 2151.26 386.823C2150.87 386.853 2150.48 386.803 2150.1 386.678L2141.55 383.844C2141.17 383.718 2140.76 383.67 2140.36 383.703L2123.8 385.119C2123.24 385.177 2122.71 385.391 2122.26 385.736C2121.81 386.081 2121.47 386.544 2121.27 387.072L2118.87 393.771C2118.73 394.174 2118.5 394.54 2118.2 394.845C2117.9 395.151 2117.54 395.387 2117.14 395.539C2116.74 395.691 2116.31 395.754 2115.88 395.725C2115.46 395.696 2115.04 395.575 2114.66 395.37L2114.56 395.32C2113.95 394.979 2113.23 394.869 2112.54 395.01C2111.86 395.151 2111.24 395.533 2110.81 396.089L2108.93 398.497C2108.43 399.124 2107.7 399.528 2106.9 399.62L2101.72 400.177C2101.43 400.206 2101.14 400.278 2100.87 400.389L2092.67 403.901C2092.3 404.053 2091.9 404.132 2091.5 404.133H2087.56C2087.07 404.133 2086.6 404.015 2086.17 403.789C2085.74 403.564 2085.38 403.237 2085.11 402.838L2084.54 402.008C2084.18 401.49 2083.67 401.097 2083.08 400.888C2082.49 400.679 2081.84 400.664 2081.24 400.845L2072.04 403.627C2071.41 403.817 2070.74 403.793 2070.12 403.557L2065.85 401.917C2065.53 401.79 2065.18 401.722 2064.84 401.715H2055.67C2055.27 401.714 2054.88 401.797 2054.52 401.958L2045.41 405.823C2044.77 406.1 2044.05 406.139 2043.38 405.935L2038.88 404.589C2038.44 404.458 2037.98 404.43 2037.53 404.507C2037.08 404.585 2036.65 404.765 2036.28 405.034L2034.31 406.481C2033.71 406.918 2032.97 407.116 2032.23 407.035C2031.5 406.955 2030.82 406.602 2030.33 406.046L2030.04 405.712C2029.64 405.258 2029.11 404.936 2028.53 404.789C2027.94 404.643 2027.32 404.679 2026.76 404.892L2019.42 407.695C2018.77 407.934 2018.05 407.934 2017.4 407.695L2014.18 406.542C2013.59 406.339 2012.96 406.321 2012.36 406.491L2009.32 407.372C2008.66 407.563 2007.95 407.516 2007.31 407.239C2006.68 406.962 2006.16 406.472 2005.85 405.854L2004.72 403.577C2004.47 403.085 2004.09 402.672 2003.63 402.382C2003.16 402.093 2002.62 401.939 2002.07 401.938H1999.44C1999.09 401.943 1998.75 401.889 1998.42 401.776L1988.21 398.193C1987.85 398.062 1987.46 398.005 1987.07 398.026C1986.68 398.047 1986.3 398.145 1985.95 398.315L1978.49 401.897C1978.09 402.088 1977.65 402.188 1977.2 402.191H1967.78C1967.38 402.192 1966.99 402.271 1966.62 402.423L1964.7 403.253C1964.1 403.508 1963.43 403.558 1962.79 403.396C1962.16 403.233 1961.6 402.866 1961.2 402.352C1960.92 401.996 1960.57 401.708 1960.16 401.51C1959.75 401.311 1959.31 401.208 1958.86 401.209H1954.1C1953.42 401.208 1952.75 401.444 1952.22 401.877L1949.46 404.144C1948.89 404.614 1948.17 404.854 1947.43 404.816C1946.69 404.779 1946 404.467 1945.48 403.941L1944.85 403.314C1944.45 402.906 1943.93 402.624 1943.37 402.504C1942.81 402.384 1942.22 402.429 1941.69 402.636L1938.93 403.698C1938.18 403.979 1937.35 403.95 1936.62 403.617L1926.93 399.124C1926.76 399.043 1926.58 398.982 1926.4 398.942L1918.8 397.07C1918.2 396.92 1917.57 396.963 1916.99 397.192C1916.42 397.421 1915.93 397.824 1915.6 398.345L1910.82 405.793C1910.64 406.079 1910.51 406.394 1910.43 406.724L1908.98 413.049C1908.81 413.771 1908.38 414.404 1907.77 414.829L1904.61 416.995C1904.22 417.26 1903.78 417.429 1903.32 417.489C1902.86 417.549 1902.39 417.498 1901.95 417.339L1895.45 415.032C1894.77 414.792 1894.03 414.808 1893.36 415.076C1892.69 415.344 1892.14 415.846 1891.82 416.489L1888.4 422.884C1888.17 423.316 1888.06 423.795 1888.05 424.281V427.165C1888.05 427.813 1887.84 428.442 1887.44 428.957C1887.05 429.472 1886.5 429.845 1885.88 430.019L1880.19 431.597C1879.59 431.768 1878.95 431.74 1878.36 431.516L1873.4 429.644C1872.98 429.483 1872.53 429.421 1872.09 429.462L1863.53 430.241C1863.08 430.285 1862.62 430.222 1862.19 430.057C1861.77 429.892 1861.38 429.629 1861.08 429.29L1860.06 428.167C1859.64 427.694 1859.08 427.374 1858.46 427.256L1854.56 426.467C1854.16 426.391 1853.75 426.396 1853.36 426.481C1852.96 426.566 1852.58 426.73 1852.25 426.963L1847.12 430.616C1846.66 430.938 1846.12 431.127 1845.56 431.162L1837.7 431.577C1837.4 431.595 1837.11 431.657 1836.83 431.759L1823.18 436.819C1822.8 436.964 1822.39 437.026 1821.98 437.002C1821.57 436.977 1821.17 436.867 1820.81 436.677L1816.86 434.653C1816.45 434.441 1815.99 434.33 1815.52 434.329H1800.85C1800.17 434.329 1799.51 434.097 1798.98 433.672L1795.43 430.828C1794.93 430.425 1794.31 430.197 1793.66 430.179C1793.02 430.161 1792.39 430.353 1791.86 430.727L1788.06 433.439C1787.67 433.714 1787.36 434.077 1787.14 434.498C1786.92 434.918 1786.81 435.384 1786.81 435.857" stroke="#266AFB" stroke-miterlimit="10"/>
<path opacity="0.2" d="M2348.26 508.787H1756.28V508.888H2348.26V508.787Z" fill="#F2F2F2"/>
<path opacity="0.3" d="M1847.35 513.897C1850.15 513.897 1852.41 511.632 1852.41 508.838C1852.41 506.043 1850.15 503.778 1847.35 503.778C1844.56 503.778 1842.29 506.043 1842.29 508.838C1842.29 511.632 1844.56 513.897 1847.35 513.897Z" fill="#266AFB"/>
<path opacity="0.3" d="M1921.22 513.897C1924.02 513.897 1926.28 511.632 1926.28 508.838C1926.28 506.043 1924.02 503.778 1921.22 503.778C1918.43 503.778 1916.17 506.043 1916.17 508.838C1916.17 511.632 1918.43 513.897 1921.22 513.897Z" fill="#266AFB"/>
<path opacity="0.3" d="M1995.1 513.897C1997.89 513.897 2000.16 511.632 2000.16 508.838C2000.16 506.043 1997.89 503.778 1995.1 503.778C1992.3 503.778 1990.04 506.043 1990.04 508.838C1990.04 511.632 1992.3 513.897 1995.1 513.897Z" fill="#266AFB"/>
<path opacity="0.3" d="M2068.97 513.897C2071.76 513.897 2074.03 511.632 2074.03 508.838C2074.03 506.043 2071.76 503.778 2068.97 503.778C2066.17 503.778 2063.91 506.043 2063.91 508.838C2063.91 511.632 2066.17 513.897 2068.97 513.897Z" fill="#266AFB"/>
<path opacity="0.3" d="M2142.84 513.897C2145.63 513.897 2147.9 511.632 2147.9 508.838C2147.9 506.043 2145.63 503.778 2142.84 503.778C2140.04 503.778 2137.78 506.043 2137.78 508.838C2137.78 511.632 2140.04 513.897 2142.84 513.897Z" fill="#266AFB"/>
<path opacity="0.3" d="M2216.71 513.897C2219.5 513.897 2221.77 511.632 2221.77 508.838C2221.77 506.043 2219.5 503.778 2216.71 503.778C2213.91 503.778 2211.65 506.043 2211.65 508.838C2211.65 511.632 2213.91 513.897 2216.71 513.897Z" fill="#266AFB"/>
<path opacity="0.3" d="M2290.58 513.897C2293.37 513.897 2295.64 511.632 2295.64 508.838C2295.64 506.043 2293.37 503.778 2290.58 503.778C2287.78 503.778 2285.52 506.043 2285.52 508.838C2285.52 511.632 2287.78 513.897 2290.58 513.897Z" fill="#266AFB"/>
</g>
<defs>
<clipPath id="clip0">
<rect width="1151.5" height="750" fill="white" transform="translate(1472)"/>
</clipPath>
</defs>
</svg>
